<svg width="17" height="23" viewBox="0 0 17 23" fill="none" xmlns="http://www.w3.org/2000/svg">
<path d="M2.07411 10.8888C4.03569 11.5783 6.10507 11.9102 8.18389 11.8688C10.2628 11.9099 12.3321 11.5777 14.2937 10.888C15.8248 10.2908 16.3678 9.62709 16.3678 9.24513V6.32495C15.8325 6.68344 15.2582 6.97996 14.6559 7.20881C12.5805 7.95196 10.388 8.31427 8.18389 8.27831C5.97995 8.31359 3.78765 7.95187 1.71186 7.21045C1.10931 6.98158 0.534954 6.68448 0 6.32495V9.24102C0 9.63038 0.544607 10.2908 2.07411 10.8888ZM2.07411 16.3965C2.76707 16.6608 3.48165 16.8644 4.20982 17.0052C5.51921 17.2585 6.85024 17.3831 8.18389 17.3773C9.51752 17.3834 10.8485 17.259 12.158 17.006C12.8861 16.8652 13.6007 16.6616 14.2937 16.3973C15.8248 15.8001 16.3678 15.1364 16.3678 14.7544V11.9698C15.9253 12.2361 15.4602 12.4628 14.9779 12.6475C12.7977 13.4194 10.4964 13.7931 8.18389 13.7507C5.87115 13.7918 3.56986 13.4167 1.38986 12.6434C0.907779 12.4583 0.442736 12.2315 0 11.9657V14.7528C0 15.1356 0.544607 15.7968 2.07411 16.3965V16.3965ZM8.18389 22.9999C12.7017 22.9999 16.3678 21.5674 16.3678 19.8013V17.4709C15.9652 17.7136 15.5435 17.9229 15.1069 18.0968L14.9779 18.1486C12.7981 18.9228 10.4968 19.2987 8.18389 19.2583C5.87091 19.2999 3.5694 18.924 1.38986 18.1486C1.3455 18.1322 1.30279 18.1133 1.26089 18.0968C0.824242 17.9229 0.40254 17.7136 0 17.4709V19.8013C0 21.5674 3.66603 22.9999 8.18389 22.9999Z" fill="#3E3636"/>
<path d="M8.18389 6.39728C12.7037 6.39728 16.3678 4.9652 16.3678 3.19864C16.3678 1.43208 12.7037 0 8.18389 0C3.66405 0 0 1.43208 0 3.19864C0 4.9652 3.66405 6.39728 8.18389 6.39728Z" fill="#3E3636"/>
</svg>
