<svg width="18" height="18" viewBox="0 0 18 18" fill="none" xmlns="http://www.w3.org/2000/svg">
<path d="M15.48 12.7884C14.95 12.7531 14.5966 12.6201 14.3022 12.2836C13.7132 11.6105 13.7132 10.7692 14.5331 10.0759L15.9138 8.85007C18.0285 6.98187 18.0285 3.91939 15.9138 2.05077C14.3552 0.678963 12.2636 0 10.0896 0C7.55125 0 4.89892 0.925476 2.85404 2.73899C-0.951347 6.10435 -0.951347 11.6118 2.85404 14.975C4.74706 16.6476 7.29758 17.4818 9.82203 17.4991H9.89943C12.4235 17.4991 14.9084 16.6788 16.6806 15.1109C17.4993 14.3869 17.4993 14.1766 16.684 12.9381C16.4897 12.6201 16.1111 12.8305 15.48 12.7884ZM2.69166 6.73073C2.69166 6.46449 2.77061 6.20423 2.91853 5.98285C3.06644 5.76148 3.27668 5.58894 3.52266 5.48705C3.76864 5.38517 4.0393 5.35851 4.30043 5.41045C4.56155 5.46239 4.80141 5.5906 4.98968 5.77886C5.17794 5.96712 5.30615 6.20698 5.35809 6.46811C5.41003 6.72924 5.38337 6.9999 5.28148 7.24588C5.1796 7.49186 5.00706 7.7021 4.78569 7.85001C4.56431 7.99793 4.30405 8.07688 4.03781 8.07688C3.68079 8.07688 3.33839 7.93505 3.08594 7.6826C2.83349 7.43015 2.69166 7.08775 2.69166 6.73073ZM4.37434 12.4098C4.1081 12.4098 3.84784 12.3308 3.62647 12.1829C3.40509 12.035 3.23255 11.8248 3.13067 11.5788C3.02878 11.3328 3.00212 11.0621 3.05406 10.801C3.106 10.5399 3.23421 10.3 3.42247 10.1118C3.61074 9.92351 3.8506 9.7953 4.11172 9.74336C4.37285 9.69142 4.64352 9.71808 4.88949 9.81996C5.13547 9.92185 5.34571 10.0944 5.49362 10.3158C5.64154 10.5371 5.72049 10.7974 5.72049 11.0636C5.72049 11.4207 5.57866 11.7631 5.32621 12.0155C5.07376 12.268 4.73136 12.4098 4.37434 12.4098ZM6.05703 4.03844C6.05703 3.7722 6.13598 3.51193 6.28389 3.29056C6.43181 3.06919 6.64205 2.89665 6.88802 2.79476C7.134 2.69288 7.40466 2.66622 7.66579 2.71816C7.92692 2.7701 8.16678 2.89831 8.35504 3.08657C8.5433 3.27483 8.67151 3.51469 8.72345 3.77582C8.77539 4.03695 8.74874 4.30761 8.64685 4.55359C8.54496 4.79956 8.37242 5.0098 8.15105 5.15772C7.92968 5.30563 7.66941 5.38459 7.40317 5.38459C7.04615 5.38459 6.70375 5.24276 6.4513 4.99031C6.19885 4.73786 6.05703 4.39546 6.05703 4.03844ZM8.74932 15.4386C8.34995 15.4386 7.95956 15.3202 7.6275 15.0983C7.29544 14.8764 7.03663 14.5611 6.8838 14.1921C6.73097 13.8232 6.69099 13.4172 6.7689 13.0255C6.84681 12.6338 7.03912 12.274 7.32151 11.9916C7.60391 11.7092 7.9637 11.5169 8.35539 11.439C8.74708 11.3611 9.15308 11.4011 9.52204 11.5539C9.891 11.7067 10.2064 11.9655 10.4282 12.2976C10.6501 12.6296 10.7685 13.02 10.7685 13.4194C10.7685 13.9549 10.5558 14.4685 10.1771 14.8472C9.79844 15.2259 9.28485 15.4386 8.74932 15.4386ZM11.7781 5.38459C11.5119 5.38459 11.2516 5.30563 11.0303 5.15772C10.8089 5.0098 10.6364 4.79956 10.5345 4.55359C10.4326 4.30761 10.4059 4.03695 10.4579 3.77582C10.5098 3.51469 10.638 3.27483 10.8263 3.08657C11.0145 2.89831 11.2544 2.7701 11.5155 2.71816C11.7767 2.66622 12.0473 2.69288 12.2933 2.79476C12.5393 2.89665 12.7495 3.06919 12.8974 3.29056C13.0453 3.51193 13.1243 3.7722 13.1243 4.03844C13.1243 4.39546 12.9825 4.73786 12.73 4.99031C12.4776 5.24276 12.1352 5.38459 11.7781 5.38459Z" fill="#222831"/>
</svg>
