<svg width="41" height="42" viewBox="0 0 41 42" fill="none" xmlns="http://www.w3.org/2000/svg">
<g filter="url(#filter0_d_28_32)">
<path d="M10.952 7.19667C10.8982 7.23419 10.7278 7.35524 10.5725 7.46083C7.01448 9.93652 4.65459 13.9625 4.20214 18.3412C3.94873 20.7768 4.2743 23.1903 5.15911 25.4389C5.46666 26.2246 5.57585 26.4462 6.13635 27.4297C6.69685 28.4132 6.83186 28.6201 7.35108 29.2852C10.8947 33.835 16.7978 35.9903 22.4634 34.8065C23.4778 34.5943 24.4887 34.2679 25.5808 33.796C26.0059 33.6118 27.7355 32.6262 28.1106 32.3543C29.7722 31.1474 31.0244 29.8524 32.0751 28.2516C32.2361 28.006 32.2623 27.95 32.2166 27.9419C32.1871 27.9382 30.4791 27.1914 28.4231 26.2839L24.6859 24.6349L19.8083 22.2268C17.1255 20.9037 14.9245 19.8258 14.9142 19.8317C14.9024 19.835 15.8836 21.5807 17.0891 23.7081C19.2013 27.4323 19.284 27.5835 19.2876 27.6977C19.2925 27.8625 19.2703 27.9435 19.1943 28.0621C19.1352 28.1505 19.0674 28.1994 18.6776 28.4215L18.231 28.676L18.0696 28.6689C17.9642 28.6639 17.8706 28.6318 17.7892 28.579L17.6688 28.4937L14.7244 23.3151L11.7811 18.1325L11.8037 17.9862C11.8141 17.9085 11.8622 17.7887 11.905 17.7199C11.9814 17.6079 12.0198 17.5792 12.4664 17.3247C12.993 17.0246 13.0925 16.9953 13.3146 17.067C13.3769 17.0862 16.0394 18.4278 19.2349 20.0504C22.4303 21.673 26.797 23.8866 28.9413 24.9729L32.8372 26.9487L32.9034 26.8187C33.4932 25.6754 33.9902 24.2432 34.26 22.8925C34.8371 20.0227 34.5807 17.0706 33.521 14.371C33.2135 13.5853 33.1043 13.3637 32.5438 12.3802C31.9833 11.3967 31.8483 11.1898 31.329 10.5248C27.7854 5.97491 21.8823 3.8196 16.2167 5.00339C15.2167 5.21082 14.2109 5.53433 13.1395 5.99449C12.877 6.1099 11.1545 7.05391 10.952 7.19667V7.19667ZM20.909 12.1029C21.0682 12.0942 21.2366 12.1556 21.3433 12.2589C21.4022 12.3143 22.2253 13.7466 24.0635 16.984L26.7008 21.6297L25.1676 20.8415L23.6317 20.0548L21.709 16.6809C20.4659 14.4996 19.7774 13.2676 19.7591 13.1994C19.718 13.0313 19.7436 12.8662 19.8293 12.7285C19.9042 12.614 19.94 12.5868 20.3453 12.3558C20.7273 12.1381 20.7974 12.105 20.909 12.1029V12.1029Z" fill="#F5EDED"/>
</g>
<defs>
<filter id="filter0_d_28_32" x="0.427504" y="0.991897" width="40.2856" height="40.287" filterUnits="userSpaceOnUse" color-interpolation-filters="sRGB">
<feFlood flood-opacity="0" result="BackgroundImageFix"/>
<feColorMatrix in="SourceAlpha" type="matrix" values="0 0 0 0 0 0 0 0 0 0 0 0 0 0 0 0 0 0 127 0" result="hardAlpha"/>
<feOffset dx="1.23042" dy="1.23042"/>
<feGaussianBlur stdDeviation="2.46085"/>
<feComposite in2="hardAlpha" operator="out"/>
<feColorMatrix type="matrix" values="0 0 0 0 0.960784 0 0 0 0 0.929412 0 0 0 0 0.929412 0 0 0 0.5 0"/>
<feBlend mode="normal" in2="BackgroundImageFix" result="effect1_dropShadow_28_32"/>
<feBlend mode="normal" in="SourceGraphic" in2="effect1_dropShadow_28_32" result="shape"/>
</filter>
</defs>
</svg>
