<svg width="51" height="50" viewBox="0 0 51 50" fill="none" xmlns="http://www.w3.org/2000/svg">
<g filter="url(#filter0_d_28_33)">
<path d="M43.8541 31.0176C44.774 28.564 42.5731 25.0867 38.4027 21.8784C41.29 17.4844 42.2391 13.4831 40.5686 11.4618C40.1854 10.9909 39.6626 10.6399 39.036 10.405L38.4048 12.0886C38.752 12.2188 39.0059 12.3915 39.1918 12.6076C39.9978 13.5814 39.6026 15.9907 38.1741 18.7445C37.8249 19.423 37.4088 20.1195 36.9569 20.8197C35.613 19.9026 34.1021 19.0175 32.4713 18.1994C31.9757 16.4206 31.3943 14.756 30.7459 13.2471C34.0647 11.8823 36.8448 11.4951 38.4151 12.0839L39.0463 10.4003C36.9702 9.6219 33.6975 10.0827 29.987 11.6193C28.1956 8.03717 26.0268 5.55354 23.9506 4.77516L23.3194 6.45875C24.8822 7.04466 26.733 9.15933 28.3422 12.3545C26.8692 13.0681 25.3395 13.9326 23.8118 14.9529C22.0376 14.4944 20.3172 14.168 18.6988 13.9831C18.8082 13.1631 18.9544 12.3826 19.127 11.6465C19.8534 8.6295 21.132 6.5514 22.3748 6.33709C22.6522 6.28611 22.9693 6.3361 23.3166 6.4663L23.9478 4.78271C23.3136 4.54495 22.6889 4.46572 22.0831 4.5658C19.5031 4.99349 17.598 8.62779 16.8982 13.8247C11.6588 13.5137 7.73221 14.6851 6.81513 17.1313C5.89522 19.5849 8.09617 23.0622 12.2666 26.2705C9.37923 30.6645 8.43018 34.6658 10.1007 36.6871C10.4838 37.158 11.0067 37.509 11.6408 37.7467C13.717 38.5251 16.9897 38.0643 20.7002 36.5277C22.4916 40.1098 24.6604 42.5935 26.7365 43.3719C27.3707 43.6096 27.9954 43.6888 28.6013 43.5888C31.1813 43.1611 33.0863 39.5268 33.7861 34.3298C39.0076 34.6427 42.937 33.4638 43.8541 31.0176V31.0176ZM35.9123 22.2967C35.2678 23.1659 34.5441 24.0398 33.775 24.8967C33.6919 24.1767 33.5938 23.451 33.4654 22.714C33.3445 21.9798 33.1953 21.2522 33.0405 20.5397C34.0532 21.1002 35.0139 21.6843 35.9123 22.2967ZM29.4401 29.0408C28.4691 29.8392 27.5028 30.5791 26.5393 31.2426C25.3776 30.919 24.2178 30.5445 23.0702 30.1142C21.9302 29.6868 20.81 29.2066 19.7266 28.6971C19.4368 27.5637 19.1848 26.3756 18.9752 25.1432C18.7722 23.9391 18.6277 22.7396 18.5314 21.5497C19.3787 20.7135 20.2865 19.9 21.2235 19.1232C22.1945 18.3248 23.1608 17.5849 24.1243 16.9214C25.286 17.245 26.4458 17.6195 27.5934 18.0498C28.7334 18.4772 29.8536 18.9574 30.937 19.4669C31.2268 20.6003 31.4788 21.7884 31.6884 23.0208C31.8914 24.2249 32.0359 25.4244 32.1322 26.6143C31.2773 27.4477 30.3771 28.264 29.4401 29.0408ZM32.2466 28.9736C32.275 30.1381 32.243 31.2799 32.1619 32.369C31.0823 32.2398 29.964 32.053 28.825 31.8068C29.4129 31.3641 30.0064 30.9064 30.583 30.4251C31.1567 29.9513 31.7106 29.4615 32.2466 28.9736ZM21.571 34.159C21.1406 33.171 20.7414 32.0999 20.378 30.9562C21.0461 31.2412 21.7322 31.5242 22.4343 31.7875C23.144 32.0535 23.8518 32.3017 24.553 32.5215C23.5423 33.1501 22.5373 33.6946 21.571 34.159ZM17.6212 27.6063C16.6086 27.0459 15.6478 26.4618 14.7494 25.8494C15.3939 24.9802 16.1176 24.1063 16.8867 23.2494C16.9698 23.9694 17.068 24.6951 17.1964 25.4321C17.3247 26.1691 17.4664 26.8939 17.6212 27.6063ZM29.0907 13.9871C29.5211 14.9751 29.9203 16.0461 30.2838 17.1899C29.6156 16.9049 28.9295 16.6219 28.2274 16.3586C27.5177 16.0926 26.8099 15.8444 26.1088 15.6246C27.1194 14.996 28.1244 14.4514 29.0907 13.9871ZM21.8367 16.3393C21.2488 16.7819 20.6553 17.2397 20.0787 17.721C19.505 18.1948 18.9539 18.677 18.4179 19.165C18.3895 18.0005 18.4215 16.8586 18.5026 15.7696C19.5794 15.9063 20.6977 16.0931 21.8367 16.3393V16.3393ZM11.4604 23.23C9.21524 21.088 8.04678 18.9449 8.49117 17.7596C8.93556 16.5743 11.2277 15.7201 14.3249 15.5896C15.0789 15.5537 15.882 15.5706 16.7021 15.6112C16.5776 17.2522 16.5664 19.0047 16.677 20.8458C15.3937 22.1557 14.2604 23.4789 13.2857 24.7926C12.626 24.2783 12.0125 23.7556 11.4604 23.23ZM11.4774 35.5413C10.6714 34.5675 11.0667 32.1582 12.4952 29.4045C12.8443 28.7259 13.2604 28.0294 13.7124 27.3292C15.0563 28.2463 16.5672 29.1314 18.198 29.9495C18.6935 31.7283 19.275 33.3929 19.9234 34.9018C16.6045 36.2666 13.8245 36.6538 12.2541 36.065C11.9172 35.9301 11.6558 35.7546 11.4774 35.5413V35.5413ZM31.5422 36.5024C30.8158 39.5194 29.5373 41.5975 28.2944 41.8118C28.017 41.8628 27.6999 41.8128 27.3526 41.6826C25.7898 41.0967 23.9391 38.982 22.3299 35.7868C23.8029 35.0733 25.3326 34.2087 26.8603 33.1885C28.6345 33.647 30.3549 33.9734 31.9733 34.1582C31.8611 34.9858 31.7224 35.7691 31.5422 36.5024V36.5024ZM36.3368 32.5564C35.5828 32.5924 34.7797 32.5754 33.9597 32.5349C34.0841 30.8938 34.0953 29.1414 33.9847 27.3003C35.2681 25.9903 36.4013 24.6672 37.3761 23.3535C38.0357 23.8678 38.6492 24.3905 39.2088 24.9189C41.454 27.0609 42.6225 29.204 42.1781 30.3893C41.7261 31.5718 39.434 32.426 36.3368 32.5564V32.5564Z" fill="#61DAFB"/>
<path d="M24.0336 27.5219C25.9391 28.2363 28.0629 27.2707 28.7773 25.3652C29.4917 23.4597 28.5261 21.3358 26.6206 20.6214C24.7151 19.907 22.5913 20.8726 21.8769 22.7781C21.1625 24.6836 22.1281 26.8075 24.0336 27.5219Z" fill="#61DAFB"/>
</g>
<defs>
<filter id="filter0_d_28_33" x="2.91664" y="0.832183" width="47.2968" height="48.9511" filterUnits="userSpaceOnUse" color-interpolation-filters="sRGB">
<feFlood flood-opacity="0" result="BackgroundImageFix"/>
<feColorMatrix in="SourceAlpha" type="matrix" values="0 0 0 0 0 0 0 0 0 0 0 0 0 0 0 0 0 0 127 0" result="hardAlpha"/>
<feOffset dx="1.23042" dy="1.23042"/>
<feGaussianBlur stdDeviation="2.46085"/>
<feComposite in2="hardAlpha" operator="out"/>
<feColorMatrix type="matrix" values="0 0 0 0 0.960784 0 0 0 0 0.929412 0 0 0 0 0.929412 0 0 0 0.5 0"/>
<feBlend mode="normal" in2="BackgroundImageFix" result="effect1_dropShadow_28_33"/>
<feBlend mode="normal" in="SourceGraphic" in2="effect1_dropShadow_28_33" result="shape"/>
</filter>
</defs>
</svg>
