<svg width="24" height="26" viewBox="0 0 24 26" fill="none" xmlns="http://www.w3.org/2000/svg">
<path d="M0 0L2.15892 23.3312L11.9984 26L21.7986 23.3312L24 0H0ZM19.463 5.53438L19.306 7.00937L19.2504 7.61875H7.75576L8.02399 10.5625H18.9854L18.8775 11.3219L18.184 18.8906L18.1284 19.3969L12.0114 21.0094V21.0187H11.9722L11.9624 21.0219V21.0187H11.9591L5.78983 19.3937L5.41693 14.875H8.39689L8.60951 17.1625L11.9591 18.0281H11.9722L15.3087 17.1656L15.6816 13.4594H11.9624V13.4562H5.25992L4.51411 5.53438L4.4585 4.775H19.5153L19.463 5.53438V5.53438Z" fill="#3e3636"/>
</svg>
