<svg width="77" height="77" viewBox="0 0 77 77" fill="none" xmlns="http://www.w3.org/2000/svg">
<path d="M6.60931 19.8128C6.60931 16.466 7.93884 13.2563 10.3054 10.8897C12.672 8.52313 15.8817 7.1936 19.2285 7.1936H57.0863C60.4331 7.1936 63.6428 8.52313 66.0094 10.8897C68.376 13.2563 69.7055 16.466 69.7055 19.8128V57.6705C69.7055 61.0174 68.376 64.2271 66.0094 66.5937C63.6428 68.9602 60.4331 70.2898 57.0863 70.2898H19.2285C15.8817 70.2898 12.672 68.9602 10.3054 66.5937C7.93884 64.2271 6.60931 61.0174 6.60931 57.6705V19.8128Z" stroke="#3E3636" stroke-width="6.30962" stroke-linecap="round" stroke-linejoin="round"/>
<path d="M27.1155 35.5868C31.4714 35.5868 35.0026 32.0556 35.0026 27.6998C35.0026 23.3439 31.4714 19.8127 27.1155 19.8127C22.7597 19.8127 19.2285 23.3439 19.2285 27.6998C19.2285 32.0556 22.7597 35.5868 27.1155 35.5868Z" stroke="#3E3636" stroke-width="6.30962" stroke-linecap="round" stroke-linejoin="round"/>
<path d="M46.1264 40.7009L19.2285 70.2899H57.5058C60.7413 70.2899 63.8444 69.0046 66.1323 66.7167C68.4201 64.4288 69.7054 61.3258 69.7054 58.0902V57.6706C69.7054 56.2005 69.1534 55.6358 68.1596 54.5474L55.4457 40.682C54.8532 40.0356 54.1324 39.5199 53.3294 39.1676C52.5264 38.8154 51.6588 38.6343 50.7819 38.6361C49.905 38.6379 49.0381 38.8224 48.2366 39.178C47.435 39.5335 46.7163 40.0522 46.1264 40.7009V40.7009Z" stroke="#3E3636" stroke-width="6.30962" stroke-linecap="round" stroke-linejoin="round"/>
</svg>
