<svg width="17" height="36" viewBox="0 0 17 36" fill="none" xmlns="http://www.w3.org/2000/svg">
<path d="M11.3727 3.95789C9.87514 2.17506 8.57367 0.392223 8.32407 0H8.27059C8.02099 0.374395 6.71952 2.17506 5.22195 3.95789C-7.61445 20.3421 7.25437 31.3957 7.25437 31.3957L7.37917 31.4848C7.48614 33.1785 7.77139 35.6388 7.77139 35.6388H8.87675C8.87675 35.6388 9.14418 33.1963 9.25115 31.4848L9.37594 31.3778C9.37594 31.3778 24.2091 20.3421 11.3727 3.95789V3.95789ZM8.27059 31.1461C7.95813 30.8894 7.67151 30.6028 7.41483 30.2903L8.27059 12.462L9.07286 30.2903C8.83235 30.5997 8.56378 30.8861 8.27059 31.1461V31.1461Z" fill="#3E3636"/>
</svg>
