<svg width="41" height="43" viewBox="0 0 21 22" fill="none" xmlns="http://www.w3.org/2000/svg">
<path d="M10.0817 21.9568C9.76823 21.9568 9.47678 21.8753 9.20458 21.7341L6.42845 20.1412C6.01143 19.9194 6.2204 19.8388 6.34596 19.7984C6.9087 19.617 7.01318 19.5766 7.59792 19.2531C7.66025 19.2128 7.74456 19.233 7.80689 19.2733L9.93596 20.5042C10.0184 20.5445 10.1238 20.5445 10.1862 20.5042L18.5146 15.8446C18.597 15.8043 18.6392 15.7236 18.6392 15.6228V6.32382C18.6392 6.223 18.598 6.14235 18.5146 6.10202L10.1862 1.46353C10.1028 1.4232 9.99828 1.4232 9.93596 1.46353L1.60757 6.10202C1.52417 6.14235 1.48201 6.24317 1.48201 6.32382V15.6228C1.48201 15.7034 1.52417 15.8043 1.60757 15.8446L3.88236 17.1158C5.11416 17.7207 5.88587 17.015 5.88587 16.3093V7.13127C5.88587 7.01029 5.99035 6.88931 6.13699 6.88931H7.20107C7.32663 6.88931 7.45128 6.99013 7.45128 7.13127V16.3083C7.45128 17.9022 6.55401 18.8297 4.9886 18.8297C4.50834 18.8297 4.13257 18.8297 3.0685 18.3256L0.877106 17.1158C0.613043 16.9706 0.392529 16.7575 0.238337 16.4986C0.084146 16.2397 0.00186775 15.9443 0 15.643V6.34398C0 5.73908 0.333612 5.17451 0.877106 4.87206L9.20549 0.21157C9.47663 0.0725213 9.77697 0 10.0817 0C10.3864 0 10.6867 0.0725213 10.9579 0.21157L19.2872 4.87114C19.8298 5.17359 20.1634 5.73816 20.1634 6.34307V15.642C20.1634 16.2469 19.8298 16.8115 19.2872 17.1149L10.9579 21.7735C10.6813 21.8934 10.3831 21.9552 10.0817 21.955V21.9568ZM12.6488 15.5623C8.99653 15.5623 8.24498 13.9492 8.24498 12.5772C8.24498 12.4562 8.34947 12.3353 8.49519 12.3353H9.58035C9.70591 12.3353 9.80948 12.4159 9.80948 12.5369C9.9772 13.6055 10.4575 14.1298 12.6699 14.1298C14.4232 14.1298 15.1748 13.7467 15.1748 12.8393C15.1748 12.3151 14.9658 11.932 12.2318 11.6699C9.95612 11.4471 8.53735 10.9641 8.53735 9.20901C8.53735 7.57486 9.95612 6.60611 12.3363 6.60611C15.008 6.60611 16.3232 7.49421 16.49 9.43081C16.4881 9.49637 16.466 9.55976 16.4267 9.61228C16.3855 9.65261 16.3232 9.69293 16.2599 9.69293H15.1748C15.122 9.69166 15.0712 9.67326 15.0298 9.64052C14.9885 9.60778 14.959 9.56248 14.9456 9.51146C14.6945 8.40248 14.0474 8.03862 12.3363 8.03862C10.4153 8.03862 10.1862 8.68385 10.1862 9.16777C10.1862 9.75342 10.4575 9.93489 13.0457 10.2575C15.6129 10.5801 16.8236 11.0439 16.8236 12.7779C16.8025 14.5541 15.3003 15.5623 12.6488 15.5623V15.5623Z" fill="#222831"/>
</svg>
