<svg width="40" height="40" viewBox="0 0 21 21" fill="none" xmlns="http://www.w3.org/2000/svg">
<path fill-rule="evenodd" clip-rule="evenodd" d="M21 21H0V0H21V21ZM16.6692 8.90097V7.27223C16.4009 7.1528 14.8648 6.7134 13.6513 7.17646C11.9032 7.84346 11.966 9.85281 12.6294 10.6414C13.4888 11.6632 15.6269 12.0442 15.277 13.0471C15.0958 13.5664 14.2501 13.6568 13.5044 13.4825C12.81 13.3201 12.2063 12.9088 12.2063 12.9088V14.6333C12.2063 14.6333 12.803 14.966 13.5355 15.0452C14.4745 15.1466 15.6514 14.9551 16.2411 14.431C17.2907 13.498 17.4519 11.4312 15.4628 10.4715C13.8076 9.67292 13.8349 9.445 13.8465 9.03537C13.8621 8.48675 15.0139 8.14903 16.6692 8.90097V8.90097ZM7.74334 4.33022C9.12052 4.37813 11.1444 5.01285 11.1444 7.71935C11.1444 10.4258 8.66816 11.314 6.40865 11.1204V14.9527H4.72541V4.36611C4.72541 4.36611 6.36608 4.28232 7.7433 4.33022H7.74334ZM8.18044 9.44385C8.90626 9.17901 9.37802 8.60967 9.37802 7.72529C9.37802 6.78764 8.89793 6.15267 8.16367 5.97331C7.36854 5.77902 6.40865 5.89354 6.40865 5.89354V9.58675C6.40865 9.58675 7.73735 9.60553 8.18044 9.44385V9.44385Z" fill="#3E3636"/>
</svg>
