<svg width="40" height="21" viewBox="0 0 24 13" fill="none" xmlns="http://www.w3.org/2000/svg">
<path d="M12 0C5.271 0 0 2.855 0 6.5C0 10.145 5.271 13 12 13C18.729 13 24 10.145 24 6.5C24 2.855 18.729 0 12 0ZM10.754 2H12.064L11.648 4H12.818C13.56 4 14.058 4.104 14.342 4.363C14.619 4.619 14.703 5.039 14.592 5.611L14.072 8H12.74L13.219 5.791C13.277 5.488 13.254 5.277 13.152 5.166C13.051 5.055 12.828 5 12.494 5H11.445L10.812 8H9.5L10.754 2V2ZM5 4H7.666C8.937 4 9.707 4.852 9.406 6.123C9.056 7.6 8.12 8 6.396 8H5.572L5.311 9.5H3.986L5 4ZM15.5 4H18.166C19.437 4 20.207 4.852 19.906 6.123C19.556 7.6 18.619 8 16.896 8H16.072L15.811 9.5H14.486L15.5 4ZM6.135 5L5.758 7H6.613C7.353 7 8.041 6.916 8.156 5.812C8.199 5.385 8.021 5 7.166 5H6.135ZM16.635 5L16.258 7H17.113C17.853 7 18.541 6.916 18.656 5.812C18.699 5.385 18.522 5 17.666 5H16.635V5Z" fill="#222831"/>
</svg>
