<svg width="24" height="24" viewBox="0 0 24 24" fill="none" xmlns="http://www.w3.org/2000/svg">
<path d="M24 12.7011C24 13.2554 23.81 13.7446 23.43 14.1685L22.2747 15.3913C21.8845 15.8043 21.4172 16.0109 20.8729 16.0109C20.3184 16.0109 19.8562 15.8043 19.4865 15.3913L14.9576 10.6141V22.0924C14.9576 22.6576 14.7651 23.1168 14.38 23.4701C13.9949 23.8234 13.5302 24 12.9859 24H11.0141C10.4698 24 10.0051 23.8234 9.62003 23.4701C9.23492 23.1168 9.04236 22.6576 9.04236 22.0924V10.6141L4.51348 15.3913C4.14377 15.8043 3.68164 16.0109 3.12709 16.0109C2.57253 16.0109 2.1104 15.8043 1.74069 15.3913L0.585366 14.1685C0.195122 13.7554 0 13.2663 0 12.7011C0 12.125 0.195122 11.6304 0.585366 11.2174L10.6136 0.603261C10.973 0.201087 11.4352 0 12 0C12.5546 0 13.0218 0.201087 13.4018 0.603261L23.43 11.2174C23.81 11.6413 24 12.1359 24 12.7011Z" fill="#F5EDED"/>
</svg>
