<svg width="23" height="17" viewBox="0 0 23 17" fill="none" xmlns="http://www.w3.org/2000/svg">
<path d="M6.79078 14.5327C6.55897 14.5329 6.33503 14.4475 6.16087 14.2924L0.326657 9.11864C0.224046 9.02759 0.141818 8.91537 0.0854812 8.78949C0.0291445 8.66361 0 8.52699 0 8.38876C0 8.25054 0.0291445 8.11392 0.0854812 7.98804C0.141818 7.86216 0.224046 7.74994 0.326657 7.65889L6.16087 2.48509C6.35193 2.31565 6.60157 2.23007 6.85489 2.24718C7.10821 2.26429 7.34444 2.38268 7.51163 2.57632C7.67881 2.76996 7.76325 3.02297 7.74637 3.27971C7.72948 3.53644 7.61266 3.77586 7.42161 3.9453L2.41011 8.38876L7.42115 12.8322C7.56781 12.9622 7.67186 13.1344 7.7194 13.3259C7.76693 13.5173 7.75569 13.7189 7.68717 13.9038C7.61866 14.0886 7.49613 14.2478 7.33596 14.3602C7.17578 14.4726 6.98559 14.5327 6.79078 14.5327ZM15.5421 14.5327C15.3473 14.5328 15.157 14.4727 14.9967 14.3604C14.8365 14.248 14.7139 14.0888 14.6453 13.904C14.5768 13.7191 14.5655 13.5175 14.613 13.326C14.6605 13.1345 14.7646 12.9622 14.9113 12.8322L19.9228 8.38876L14.9117 3.9453C14.7207 3.77586 14.6039 3.53644 14.587 3.27971C14.5701 3.02297 14.6545 2.76996 14.8217 2.57632C14.9889 2.38268 15.2251 2.26429 15.4784 2.24718C15.7318 2.23007 15.9814 2.31565 16.1725 2.48509L22.0067 7.65889C22.1093 7.74994 22.1915 7.86216 22.2479 7.98804C22.3042 8.11392 22.3333 8.25054 22.3333 8.38876C22.3333 8.52699 22.3042 8.66361 22.2479 8.78949C22.1915 8.91537 22.1093 9.02759 22.0067 9.11864L16.1725 14.2924C15.9982 14.4477 15.7741 14.5331 15.5421 14.5327ZM8.97861 16.75C8.82955 16.75 8.68256 16.7147 8.54934 16.6469C8.41613 16.5791 8.30038 16.4807 8.21131 16.3596C8.12224 16.2384 8.06232 16.0979 8.03632 15.9491C8.01032 15.8004 8.01896 15.6475 8.06155 15.5027L12.4372 0.72045C12.4702 0.59501 12.5276 0.47755 12.6062 0.375029C12.6848 0.272508 12.7828 0.187011 12.8946 0.123603C13.0064 0.0601949 13.1295 0.0201659 13.2569 0.00588677C13.3842 -0.00839232 13.513 0.00336924 13.6357 0.0404746C13.7585 0.07758 13.8726 0.139274 13.9714 0.221903C14.0702 0.304532 14.1516 0.406414 14.2108 0.521514C14.2701 0.636614 14.3059 0.762591 14.3162 0.891981C14.3265 1.02137 14.3111 1.15154 14.2709 1.27479L9.89522 16.0571C9.83636 16.2572 9.71537 16.4327 9.55023 16.5575C9.3851 16.6823 9.18463 16.7499 8.97861 16.75Z" fill="#222831"/>
</svg>
