<svg width="26" height="27" viewBox="0 0 26 27" fill="none" xmlns="http://www.w3.org/2000/svg">
<path d="M25 23.3808V14.105C25.0001 13.4596 24.8667 12.821 24.6082 12.2284C24.3497 11.6357 23.9713 11.1014 23.4964 10.6582L14.6488 2.39931C14.2032 1.98319 13.6132 1.75134 13 1.75134C12.3868 1.75134 11.7968 1.98319 11.3512 2.39931L2.5036 10.6582C2.02867 11.1014 1.65034 11.6357 1.3918 12.2284C1.13325 12.821 0.999931 13.4596 1 14.105V23.3808C1 24.0095 1.25286 24.6125 1.70294 25.057C2.15303 25.5016 2.76348 25.7513 3.4 25.7513H22.6C23.2365 25.7513 23.847 25.5016 24.2971 25.057C24.7471 24.6125 25 24.0095 25 23.3808Z" stroke="black" stroke-width="2" stroke-linecap="round" stroke-linejoin="round"/>
</svg>
