<svg width="24" height="22" viewBox="0 0 24 22" fill="none" xmlns="http://www.w3.org/2000/svg">
<path d="M21.1073 4.25H6.65625C5.0625 4.25 3.75 5.53953 3.75 7.12484V18.6252C3.75 20.2105 5.0625 21.5 6.65625 21.5H21.0938C22.6875 21.5 24 20.2728 24 18.6875V7.12484C24 5.53953 22.7025 4.25 21.1073 4.25V4.25ZM17.4909 7.12531C17.9168 7.1279 18.3324 7.25657 18.6853 7.49507C19.0382 7.73357 19.3125 8.07123 19.4737 8.46546C19.6349 8.85968 19.6757 9.29281 19.591 9.71021C19.5063 10.1276 19.3 10.5106 18.9979 10.8108C18.6958 11.1111 18.3116 11.3151 17.8937 11.3973C17.4758 11.4794 17.0429 11.436 16.6496 11.2724C16.2564 11.1088 15.9204 10.8324 15.6841 10.4781C15.4477 10.1238 15.3216 9.70747 15.3216 9.28156C15.3238 8.70806 15.5535 8.15887 15.9602 7.75453C16.3669 7.35018 16.9174 7.12372 17.4909 7.12484V7.12531ZM6.63703 20.0628C5.84016 20.0628 5.23734 19.4183 5.23734 18.6256V15.5867L9.47766 11.7997C9.89219 11.435 10.4296 11.2411 10.9814 11.2571C11.5333 11.273 12.0586 11.4975 12.4514 11.8855L15.3877 14.7969L10.0908 20.0623L6.63703 20.0628ZM22.5 18.6252C22.4999 18.8141 22.4626 19.0011 22.3903 19.1756C22.3179 19.3501 22.2118 19.5086 22.0781 19.6421C21.9444 19.7756 21.7857 19.8814 21.6111 19.9535C21.4365 20.0256 21.2494 20.0626 21.0605 20.0623H12.1406L17.6287 14.6094C18.0182 14.2808 18.511 14.1 19.0205 14.0986C19.53 14.0973 20.0238 14.2754 20.415 14.6019L22.5 16.3714V18.6252Z" fill="black"/>
<path d="M18 0.5H3C2.20435 0.5 1.44129 0.816071 0.87868 1.37868C0.316071 1.94129 0 2.70435 0 3.5L0 15.5C0.00054868 16.1651 0.221737 16.8113 0.628907 17.3372C1.03608 17.8631 1.60622 18.2391 2.25 18.4062V6.125C2.25 5.22989 2.60558 4.37145 3.23851 3.73851C3.87145 3.10558 4.72989 2.75 5.625 2.75H20.9062C20.7391 2.10622 20.3631 1.53608 19.8372 1.12891C19.3113 0.721737 18.6651 0.500549 18 0.5Z" fill="black"/>
</svg>
