<svg width="24" height="24" viewBox="0 0 24 24" fill="none" xmlns="http://www.w3.org/2000/svg">
<path d="M22.8 0H4.8C4.16348 0 3.55303 0.252856 3.10294 0.702944C2.65286 1.15303 2.4 1.76348 2.4 2.4V6H0V8.4H2.4V10.8H0V13.2H2.4V15.6H0V18H2.4V21.6C2.4 22.2365 2.65286 22.847 3.10294 23.2971C3.55303 23.7471 4.16348 24 4.8 24H22.8C23.1183 24 23.4235 23.8736 23.6485 23.6485C23.8736 23.4235 24 23.1183 24 22.8V1.2C24 0.88174 23.8736 0.576515 23.6485 0.351472C23.4235 0.126428 23.1183 0 22.8 0V0ZM13.2 3.5988C15.1776 3.5988 16.8 5.22 16.8 7.1988C16.7965 8.15262 16.4162 9.0664 15.7418 9.74097C15.0675 10.4155 14.1538 10.7962 13.2 10.8C11.2236 10.8 9.6 9.1764 9.6 7.1988C9.6 5.22 11.2236 3.5988 13.2 3.5988ZM20.4 19.2H6V18.3C6 15.6372 9.246 12.9 13.2 12.9C17.154 12.9 20.4 15.6372 20.4 18.3V19.2Z" fill="black"/>
</svg>
