<svg width="21" height="21" viewBox="0 0 21 21" fill="none" xmlns="http://www.w3.org/2000/svg">
<path fill-rule="evenodd" clip-rule="evenodd" d="M6.0782 0.595208C7.16066 0.545376 7.5058 0.534302 10.2632 0.534302C13.0206 0.534302 13.3657 0.546298 14.4472 0.595208C15.5288 0.644117 16.267 0.816684 16.913 1.06677C17.5894 1.32239 18.2031 1.72197 18.7106 2.23875C19.2274 2.74537 19.6261 3.35812 19.8808 4.03547C20.1318 4.68144 20.3034 5.4197 20.3533 6.49939C20.4031 7.58371 20.4142 7.92884 20.4142 10.6853C20.4142 13.4427 20.4022 13.7878 20.3533 14.8703C20.3044 15.95 20.1318 16.6882 19.8808 17.3342C19.6261 18.0116 19.2268 18.6254 18.7106 19.1328C18.2031 19.6495 17.5894 20.0482 16.913 20.3029C16.267 20.5539 15.5288 20.7256 14.4491 20.7754C13.3657 20.8252 13.0206 20.8363 10.2632 20.8363C7.5058 20.8363 7.16066 20.8243 6.0782 20.7754C4.9985 20.7265 4.26025 20.5539 3.61428 20.3029C2.93685 20.0482 2.32309 19.6489 1.8157 19.1328C1.29928 18.6258 0.899636 18.0124 0.644648 17.3351C0.394565 16.6891 0.222921 15.9509 0.173089 14.8712C0.123256 13.7869 0.112183 13.4418 0.112183 10.6853C0.112183 7.92792 0.124179 7.58278 0.173089 6.50124C0.221998 5.4197 0.394565 4.68144 0.644648 4.03547C0.900013 3.3582 1.29996 2.74474 1.81663 2.23782C2.32329 1.72151 2.93644 1.32187 3.61335 1.06677C4.25932 0.816684 4.99758 0.64504 6.07728 0.595208H6.0782ZM14.3651 2.42239C13.2946 2.37348 12.9735 2.36333 10.2632 2.36333C7.55286 2.36333 7.23172 2.37348 6.16125 2.42239C5.17107 2.4676 4.63399 2.63279 4.27594 2.77213C3.80253 2.9567 3.46386 3.17541 3.10857 3.53069C2.77178 3.85834 2.5126 4.25721 2.35002 4.69805C2.21067 5.05611 2.04549 5.59319 2.00027 6.58337C1.95136 7.65384 1.94121 7.97498 1.94121 10.6853C1.94121 13.3956 1.95136 13.7168 2.00027 14.7872C2.04549 15.7774 2.21067 16.3145 2.35002 16.6725C2.51243 17.1127 2.77174 17.5123 3.10857 17.8399C3.43617 18.1767 3.83575 18.436 4.27594 18.5985C4.63399 18.7378 5.17107 18.903 6.16125 18.9482C7.23172 18.9971 7.55194 19.0073 10.2632 19.0073C12.9744 19.0073 13.2946 18.9971 14.3651 18.9482C15.3553 18.903 15.8924 18.7378 16.2504 18.5985C16.7238 18.4139 17.0625 18.1952 17.4178 17.8399C17.7546 17.5123 18.0139 17.1127 18.1763 16.6725C18.3157 16.3145 18.4809 15.7774 18.5261 14.7872C18.575 13.7168 18.5851 13.3956 18.5851 10.6853C18.5851 7.97498 18.575 7.65384 18.5261 6.58337C18.4809 5.59319 18.3157 5.05611 18.1763 4.69805C17.9918 4.22465 17.7731 3.88598 17.4178 3.53069C17.0901 3.19393 16.6912 2.93474 16.2504 2.77213C15.8924 2.63279 15.3553 2.4676 14.3651 2.42239V2.42239ZM8.96662 13.8146C9.69071 14.116 10.497 14.1567 11.2478 13.9297C11.9985 13.7027 12.6472 13.222 13.0829 12.5699C13.5187 11.9178 13.7146 11.1346 13.637 10.3541C13.5595 9.57361 13.2134 8.84425 12.6579 8.29058C12.3037 7.93666 11.8755 7.66566 11.4041 7.4971C10.9326 7.32853 10.4297 7.26659 9.93142 7.31573C9.43316 7.36488 8.95199 7.52389 8.52256 7.78131C8.09313 8.03873 7.72611 8.38817 7.44794 8.80446C7.16976 9.22075 6.98735 9.69353 6.91382 10.1888C6.8403 10.684 6.8775 11.1894 7.02274 11.6686C7.16798 12.1477 7.41765 12.5887 7.75378 12.9598C8.0899 13.3309 8.50412 13.6228 8.96662 13.8146ZM6.57375 6.99587C7.05825 6.51137 7.63344 6.12704 8.26647 5.86483C8.89951 5.60262 9.57799 5.46766 10.2632 5.46766C10.9484 5.46766 11.6268 5.60262 12.2599 5.86483C12.8929 6.12704 13.4681 6.51137 13.9526 6.99587C14.4371 7.48037 14.8214 8.05556 15.0836 8.68859C15.3459 9.32163 15.4808 10.0001 15.4808 10.6853C15.4808 11.3705 15.3459 12.049 15.0836 12.682C14.8214 13.315 14.4371 13.8902 13.9526 14.3747C12.9741 15.3532 11.647 15.9029 10.2632 15.9029C8.87937 15.9029 7.55225 15.3532 6.57375 14.3747C5.59525 13.3962 5.04554 12.0691 5.04554 10.6853C5.04554 9.30149 5.59525 7.97437 6.57375 6.99587V6.99587ZM16.638 6.2447C16.7581 6.13144 16.8542 5.99524 16.9207 5.84417C16.9871 5.6931 17.0226 5.53022 17.025 5.36519C17.0275 5.20015 16.9967 5.03631 16.9347 4.88337C16.8726 4.73042 16.7805 4.59148 16.6638 4.47477C16.5471 4.35806 16.4082 4.26595 16.2552 4.2039C16.1023 4.14185 15.9384 4.11112 15.7734 4.11353C15.6083 4.11593 15.4455 4.15143 15.2944 4.21791C15.1433 4.28439 15.0071 4.38051 14.8939 4.50057C14.6736 4.73407 14.553 5.04422 14.5577 5.36519C14.5624 5.68615 14.692 5.99266 14.9189 6.21964C15.1459 6.44662 15.4524 6.5762 15.7734 6.58088C16.0943 6.58556 16.4045 6.46496 16.638 6.2447V6.2447Z" fill="#F5EDED"/>
</svg>
