<svg width="24" height="24" viewBox="0 0 24 24" fill="none" xmlns="http://www.w3.org/2000/svg">
<path d="M9.6 17.3333V16H1.212L1.2 21.3333C1.2 22.8133 2.268 24 3.6 24H20.4C21.732 24 22.8 22.8133 22.8 21.3333V16H14.4V17.3333H9.6ZM21.6 5.33333H16.788V2.66667L14.388 0H9.588L7.188 2.66667V5.33333H2.4C1.08 5.33333 0 6.53333 0 8V12C0 13.48 1.068 14.6667 2.4 14.6667H9.6V12H14.4V14.6667H21.6C22.92 14.6667 24 13.4667 24 12V8C24 6.53333 22.92 5.33333 21.6 5.33333ZM14.4 5.33333H9.6V2.66667H14.4V5.33333Z" fill="black"/>
</svg>
