<svg width="52" height="52" viewBox="0 0 52 52" fill="none" xmlns="http://www.w3.org/2000/svg">
<circle cx="25.9439" cy="25.618" r="25.618" fill="#3E3636"/>
<path d="M28.7904 25.618L25.3747 22.2022V24.764H18.5432V26.4719H25.3747V29.0337L28.7904 25.618ZM33.914 30.7416V20.4944C33.914 20.0414 33.7341 19.607 33.4138 19.2867C33.0935 18.9664 32.6591 18.7865 32.2061 18.7865H21.9589C21.506 18.7865 21.0716 18.9664 20.7513 19.2867C20.431 19.607 20.2511 20.0414 20.2511 20.4944V23.0562H21.9589V20.4944H32.2061V30.7416H21.9589V28.1798H20.2511V30.7416C20.2511 31.1945 20.431 31.6289 20.7513 31.9492C21.0716 32.2695 21.506 32.4494 21.9589 32.4494H32.2061C32.6591 32.4494 33.0935 32.2695 33.4138 31.9492C33.7341 31.6289 33.914 31.1945 33.914 30.7416Z" fill="#F5EDED"/>
</svg>
