<svg width="35" height="40" viewBox="0 0 14 21" fill="none" xmlns="http://www.w3.org/2000/svg">
<path fill-rule="evenodd" clip-rule="evenodd" d="M3.98742 0.314697C1.89786 0.314697 0.217339 2.0678 0.217339 4.21543C0.217339 5.52108 0.838997 6.68071 1.79454 7.38861C1.30206 7.75758 0.902878 8.23679 0.628986 8.78784C0.355093 9.33889 0.214111 9.94644 0.217339 10.5618C0.217339 11.8683 0.838997 13.0271 1.79454 13.735C1.30206 14.1039 0.902878 14.5832 0.628986 15.1342C0.355093 15.6853 0.214111 16.2928 0.217339 16.9082C0.217339 19.0558 1.89786 20.8089 3.98742 20.8089C6.07612 20.8089 7.75749 19.0558 7.75749 16.9082V13.6103C8.41786 14.1609 9.25026 14.4627 10.1101 14.4634C12.1996 14.4625 13.8801 12.7094 13.8801 10.5618C13.8836 9.94641 13.7427 9.33878 13.4688 8.7877C13.1949 8.23662 12.7956 7.75744 12.3029 7.38861C12.7954 7.01964 13.1946 6.54043 13.4685 5.98938C13.7424 5.43833 13.8834 4.83078 13.8801 4.21543C13.8801 2.0678 12.1996 0.314697 10.1101 0.314697H3.98742V0.314697ZM1.634 4.21543C1.634 2.85683 2.69457 1.76893 3.98742 1.76893H6.33998V6.66192H3.98742C2.69457 6.66192 1.634 5.57317 1.634 4.21543V4.21543ZM10.1101 6.66107H7.75749V1.76808H10.1101C11.4038 1.76808 12.4635 2.85683 12.4635 4.21543C12.4635 5.57317 11.4038 6.66107 10.1101 6.66107ZM1.63485 10.5618C1.63485 9.20405 2.69543 8.1153 3.98827 8.1153H6.34083V13.0083H3.98742C2.69372 13.0083 1.634 11.9195 1.634 10.5618H1.63485ZM7.75749 10.5618C7.75749 9.20405 8.81807 8.1153 10.1109 8.1153C11.4046 8.1153 12.4643 9.2032 12.4643 10.5618C12.4643 11.9195 11.4046 13.0083 10.1109 13.0083C8.81807 13.0083 7.75835 11.9204 7.75835 10.5618H7.75749ZM1.63485 16.9082C1.63485 15.5504 2.69543 14.4625 3.98827 14.4625H6.34083V16.9082C6.34083 18.2668 5.28197 19.3547 3.98827 19.3547C2.69543 19.3547 1.63485 18.2668 1.63485 16.9082Z" fill="#3e3636"/>
</svg>
