<svg width="48" height="48" viewBox="0 0 48 48" fill="none" xmlns="http://www.w3.org/2000/svg">
<g clip-path="url(#clip0_28_25)" filter="url(#filter0_d_28_25)">
<path d="M4.04297 4.30548L41.1018 3.99999L41.4073 41.0588L4.34846 41.3643L4.04297 4.30548Z" fill="#F0DB4F"/>
<path d="M38.3014 32.2454C38.0162 30.5567 36.9019 29.1461 33.6255 27.8485C32.4868 27.3365 31.2191 26.9736 30.8351 26.1171C30.6971 25.618 30.6772 25.3363 30.7592 25.0327C30.9942 24.0478 32.1647 23.7317 33.097 24.0058C33.6976 24.2017 34.2685 24.6585 34.6163 25.3919C36.2071 24.3431 36.2036 24.3501 37.3144 23.6294C36.9006 22.9987 36.6797 22.708 36.4098 22.439C35.4392 21.3725 34.1242 20.8303 32.0286 20.8898C31.6661 20.9386 31.3002 20.9909 30.9377 21.0397C29.8937 21.3126 28.9012 21.8703 28.3225 22.6114C26.5846 24.6162 27.1136 28.096 29.2602 29.5121C31.3762 31.073 34.4686 31.4068 34.8753 32.8796C35.2742 34.6836 33.567 35.2824 31.8638 35.0886C30.6075 34.8383 29.9048 34.2064 29.1414 33.0537C27.7601 33.8683 27.7601 33.8683 26.3402 34.7008C26.6845 35.4378 27.043 35.7695 27.6154 36.406C30.3222 39.1069 37.0388 38.9177 38.2097 34.7862C38.2578 34.6448 38.5741 33.6981 38.3014 32.2454V32.2454ZM24.3297 21.1717L20.8634 21.2003C20.8881 24.1945 20.8985 27.1678 20.9232 30.1621C20.9389 32.0679 21.052 33.8143 20.7464 34.3523C20.2478 35.4098 18.9328 35.2903 18.3322 35.0909C17.7203 34.7965 17.4068 34.3728 17.0425 33.7734C16.9425 33.6016 16.8674 33.4684 16.8426 33.458C15.9068 34.0399 14.9745 34.6254 14.0387 35.2073C14.5152 36.1652 15.2125 36.9944 16.1011 37.5295C17.4287 38.3113 19.2061 38.5397 21.0591 38.0981C22.2645 37.7359 23.3012 36.9982 23.838 35.884C24.6151 34.4226 24.4315 32.6627 24.4084 30.7147C24.3998 27.5371 24.356 24.3597 24.3297 21.1717Z" fill="#323330"/>
</g>
<defs>
<filter id="filter0_d_28_25" x="0.351638" y="0.30873" width="47.2076" height="47.2077" filterUnits="userSpaceOnUse" color-interpolation-filters="sRGB">
<feFlood flood-opacity="0" result="BackgroundImageFix"/>
<feColorMatrix in="SourceAlpha" type="matrix" values="0 0 0 0 0 0 0 0 0 0 0 0 0 0 0 0 0 0 127 0" result="hardAlpha"/>
<feOffset dx="1.23042" dy="1.23042"/>
<feGaussianBlur stdDeviation="2.46085"/>
<feComposite in2="hardAlpha" operator="out"/>
<feColorMatrix type="matrix" values="0 0 0 0 0.960784 0 0 0 0 0.929412 0 0 0 0 0.929412 0 0 0 0.5 0"/>
<feBlend mode="normal" in2="BackgroundImageFix" result="effect1_dropShadow_28_25"/>
<feBlend mode="normal" in="SourceGraphic" in2="effect1_dropShadow_28_25" result="shape"/>
</filter>
<clipPath id="clip0_28_25">
<rect width="37.0601" height="37.0601" fill="white" transform="translate(4.04291 4.30548) rotate(-0.472303)"/>
</clipPath>
</defs>
</svg>
