<svg width="47" height="50" viewBox="0 0 47 50" fill="none" xmlns="http://www.w3.org/2000/svg">
<g clip-path="url(#clip0_28_28)">
<path d="M4.90897 35.2988L13.3654 0.528168L46.4228 11.5665L32.2901 44.3792L17.5089 43.8118L4.90897 35.2988Z" fill="#E34F26"/>
<path d="M18.5931 40.5424L28.9611 9.27866L42.5686 13.8416L30.8632 41.0076L18.5931 40.5424Z" fill="#EF652A"/>
<path d="M36.2476 20.3643L38.0038 16.3599L17.0479 9.41034L14.0042 22.4634L28.4668 27.2596L26.1077 32.475L21.0619 32.1875L16.8139 29.2668L17.6334 25.96L13.4781 24.582L11.8623 31.3545L19.6085 36.5695L29.0038 37.0392L34.4232 24.5726L19.2345 19.5356L20.2412 15.0561L36.2476 20.3643Z" fill="white"/>
</g>
<defs>
<clipPath id="clip0_28_28">
<rect width="34.8516" height="39.9125" fill="white" transform="translate(13.3864 0.464874) rotate(18.347)"/>
</clipPath>
</defs>
</svg>
