<svg width="46" height="50" viewBox="0 0 46 50" fill="none" xmlns="http://www.w3.org/2000/svg">
<g clip-path="url(#clip0_28_36)">
<path d="M13.7932 44.198L0.020752 11.6479L32.7336 0.931458L40.8521 35.2721L28.7976 43.5275L13.7932 44.198Z" fill="#1B73BA"/>
<path d="M27.7318 40.2967L17.5404 9.40137L31.0174 5.00541L37.735 33.4394L27.7318 40.2967Z" fill="#1C88C7"/>
<path d="M28.9621 10.0124L8.25287 16.8437L10.146 20.697L19.9732 17.4553L11.6724 24.7961L13.5209 28.515L27.7685 23.8152L29.0507 29.4374L24.5377 31.9712L19.7926 32.2926L18.4346 29.3073L14.4184 30.6321L17.0809 36.894L26.4886 36.4526L33.8797 31.1038L30.7821 18.1688L22.0537 21.048L30.2644 13.9612L28.9621 10.0124Z" fill="white"/>
</g>
<defs>
<clipPath id="clip0_28_36">
<rect width="34.4233" height="39.422" fill="white" transform="translate(0 11.5851) rotate(-18.2562)"/>
</clipPath>
</defs>
</svg>
