<svg width="36" height="25" viewBox="0 0 36 25" fill="none" xmlns="http://www.w3.org/2000/svg">
<path d="M24.458 2.45987C24.2866 2.45987 24.1703 2.48074 24.0495 2.50907V2.52845H24.0704C24.1509 2.6835 24.2881 2.79681 24.3895 2.93546C24.47 3.09499 24.5386 3.25451 24.6191 3.41255L24.6399 3.39018C24.7801 3.29178 24.8487 3.13375 24.8487 2.89372C24.789 2.82364 24.7801 2.75357 24.7294 2.68499C24.6698 2.5851 24.5415 2.5359 24.461 2.45689L24.458 2.45987ZM8.60243 22.1307H7.22038C7.18151 19.9343 7.04721 17.7406 6.81784 15.5558H6.80591L4.70376 22.1307H3.65268L1.56543 15.5558H1.55053C1.38726 17.744 1.29031 19.9366 1.2598 22.1307H0C0.0819989 19.1996 0.286251 16.4504 0.611265 13.886H2.32579L4.31613 19.945H4.32805L6.33628 13.886H7.96881C8.3296 16.8902 8.54131 19.6409 8.60691 22.1307H8.60243ZM14.5913 16.0478C14.0278 19.0967 13.2853 21.3152 12.3669 22.6972C11.6483 23.7647 10.8611 24.2969 10.0069 24.2969C9.77875 24.2969 9.49995 24.2284 9.16301 24.0912V23.3547C9.32701 23.38 9.52082 23.3935 9.73849 23.3935C10.1381 23.3935 10.4586 23.2816 10.7031 23.0625C10.9968 22.7941 11.1429 22.493 11.1429 22.1605C11.1429 21.9294 11.0281 21.4598 10.8 20.7531L9.28824 16.0478H10.645L11.7288 19.5663C11.9733 20.3655 12.0762 20.923 12.0345 21.2406C12.6308 19.6543 13.0453 17.9204 13.2794 16.0478H14.5913ZM32.9666 22.1307H29.0455V13.886H30.365V21.1169H32.9666V22.1307ZM28.0168 22.3319L26.5021 21.5865C26.6362 21.4732 26.7659 21.3509 26.8822 21.2138C27.5278 20.4594 27.8483 19.3382 27.8483 17.8548C27.8483 15.1265 26.7779 13.7608 24.6355 13.7608C23.5859 13.7608 22.7659 14.1067 22.1755 14.8C21.5344 15.5573 21.2124 16.6725 21.2124 18.147C21.2124 19.5962 21.4957 20.6607 22.0682 21.3375C22.59 21.9488 23.3757 22.2544 24.4282 22.2544C24.8218 22.2544 25.1826 22.2052 25.5091 22.1083L27.4846 23.2593L28.0213 22.3319H28.0168ZM23.1088 20.4803C22.7733 19.9435 22.6064 19.0788 22.6064 17.8921C22.6064 15.8153 23.2385 14.7761 24.4998 14.7761C25.1603 14.7761 25.6478 15.0251 25.9564 15.5216C26.2904 16.0613 26.4573 16.917 26.4573 18.0904C26.4573 20.1836 25.8252 21.2332 24.5639 21.2332C23.9005 21.2332 23.4159 20.9842 23.1058 20.4877L23.1088 20.4803ZM20.6369 19.8466C20.6369 20.5473 20.3805 21.1228 19.8676 21.5701C19.3547 22.0174 18.6704 22.241 17.8042 22.241C16.9947 22.241 16.2179 21.9846 15.459 21.4732L15.8124 20.7635C16.4654 21.0915 17.0543 21.2525 17.5865 21.2525C18.0815 21.2525 18.4706 21.1437 18.7539 20.9245C18.8955 20.8178 19.0098 20.6791 19.0875 20.5197C19.1653 20.3604 19.2042 20.1849 19.2012 20.0076C19.2012 19.5156 18.8583 19.0982 18.2351 18.7478C17.6566 18.4303 16.5012 17.7683 16.5012 17.7683C15.872 17.3106 15.5589 16.8201 15.5589 16.0135C15.5589 15.3426 15.793 14.8059 16.2596 14.3959C16.7293 13.9815 17.3331 13.7772 18.0785 13.7772C18.8419 13.7772 19.5396 13.98 20.1658 14.3885L19.8482 15.0981C19.3479 14.8783 18.8084 14.7617 18.2619 14.7552C17.84 14.7552 17.5135 14.8566 17.2869 15.0624C17.1719 15.1576 17.0792 15.277 17.0153 15.4119C16.9514 15.5469 16.9179 15.6943 16.9171 15.8436C16.9171 16.3326 17.266 16.753 17.9101 17.1108C18.496 17.4314 19.6797 18.1097 19.6797 18.1097C20.3253 18.5645 20.6458 19.049 20.6458 19.8511L20.6369 19.8466ZM34.6244 11.1219C33.8268 11.1011 33.2081 11.1816 32.6907 11.4022C32.5417 11.4619 32.3031 11.4619 32.2822 11.6512C32.3642 11.7302 32.3762 11.8599 32.4462 11.9703C32.5655 12.17 32.7712 12.4369 32.9621 12.577C33.1708 12.741 33.3795 12.8991 33.5987 13.0392C33.9863 13.2778 34.4261 13.4194 34.8063 13.6594C35.0225 13.7996 35.2431 13.977 35.4623 14.1261C35.5711 14.2006 35.6412 14.3348 35.7814 14.3825V14.3527C35.7128 14.2632 35.6919 14.1335 35.6248 14.0336C35.5249 13.9338 35.425 13.8443 35.3266 13.7459C35.0339 13.3602 34.6846 13.0209 34.2905 12.7396C33.9714 12.5219 33.2737 12.2177 33.1425 11.8525L33.1231 11.8316C33.3408 11.8122 33.6002 11.7332 33.8089 11.6736C34.1473 11.5841 34.4574 11.6035 34.8078 11.5155C34.9658 11.4753 35.1254 11.4261 35.2849 11.3754V11.2859C35.106 11.107 34.9718 10.864 34.7869 10.697C34.2709 10.246 33.7206 9.83575 33.141 9.47003C32.8279 9.27025 32.4313 9.14204 32.1018 8.97207C31.9826 8.91244 31.7828 8.88262 31.7142 8.78273C31.5353 8.56506 31.4309 8.27583 31.3042 8.01641C31.0115 7.44851 30.7394 6.87016 30.4887 6.28251C30.3098 5.89189 30.201 5.50277 29.9818 5.14496C28.9531 3.44982 27.8394 2.42259 26.1264 1.41773C25.7581 1.20901 25.3168 1.11956 24.8502 1.00923C24.6012 0.997304 24.3522 0.979413 24.1047 0.968977C23.9407 0.898905 23.7827 0.709562 23.6425 0.618617C23.076 0.260804 21.609 -0.514459 21.1915 0.511273C20.9231 1.15832 21.5896 1.79642 21.8207 2.12442C21.9921 2.35252 22.2083 2.61343 22.3276 2.86986C22.3976 3.0428 22.417 3.22022 22.4871 3.40062C22.6451 3.83894 22.7957 4.32795 23.0044 4.73795C23.1133 4.94667 23.2325 5.16583 23.3727 5.35368C23.4532 5.46252 23.5904 5.51321 23.6217 5.69212C23.4815 5.89488 23.4726 6.19007 23.3921 6.43756C23.0342 7.56616 23.1744 8.96164 23.6813 9.79206C23.8408 10.0396 24.221 10.5882 24.7294 10.378C25.1767 10.1991 25.0783 9.63254 25.2065 9.13309C25.2363 9.01382 25.2169 8.9348 25.278 8.85429V8.87666C25.4182 9.15694 25.5583 9.42381 25.6865 9.7041C25.9937 10.1931 26.5304 10.7 26.9791 11.0384C27.2177 11.2174 27.407 11.5275 27.7052 11.6378V11.608H27.6828C27.6187 11.5215 27.5338 11.4798 27.4532 11.4097C27.2642 11.2246 27.0898 11.0252 26.9314 10.8133C26.5114 10.2394 26.1389 9.63204 25.8177 8.99742C25.6537 8.68433 25.5166 8.34739 25.3854 8.03878C25.3257 7.91951 25.3257 7.7406 25.2259 7.68096C25.0768 7.89863 24.8576 8.08798 24.7488 8.35634C24.5594 8.78571 24.54 9.31349 24.4685 9.86213C24.4282 9.87257 24.4476 9.86213 24.4282 9.88301C24.1092 9.80548 24.0003 9.4745 23.8811 9.1972C23.5829 8.48903 23.5337 7.35148 23.7916 6.53596C23.8617 6.32723 24.1599 5.66826 24.0406 5.46848C23.978 5.27914 23.7812 5.1703 23.6724 5.01674C23.5323 4.81688 23.4125 4.60363 23.3145 4.38013C23.076 3.82254 22.9567 3.20531 22.6973 2.64772C22.578 2.38979 22.3693 2.11994 22.1994 1.88289C22.01 1.61453 21.8013 1.42519 21.6507 1.10763C21.6015 0.998794 21.5314 0.818397 21.6104 0.699126C21.6313 0.618618 21.6731 0.587309 21.7506 0.564946C21.8818 0.457602 22.25 0.597745 22.3797 0.657381C22.748 0.80647 23.0581 0.946613 23.3667 1.15534C23.5069 1.25374 23.6574 1.44308 23.8363 1.49228H24.0451C24.3641 1.56235 24.7234 1.51315 25.0216 1.60111C25.5509 1.77108 26.028 2.01856 26.4558 2.28692C27.7743 3.12915 28.8467 4.30492 29.5643 5.6951C29.6836 5.9247 29.7358 6.13491 29.8446 6.37345C30.0534 6.86545 30.3113 7.36191 30.523 7.83751C30.7317 8.30714 30.933 8.78571 31.2327 9.17484C31.3817 9.38356 31.9811 9.4924 32.2494 9.60123C32.4477 9.69068 32.7563 9.77268 32.9352 9.88152C33.2782 10.0902 33.6121 10.3288 33.9341 10.5584C34.0981 10.6717 34.5946 10.9207 34.6244 11.1219V11.1219Z" fill="#3E3636"/>
</svg>
