<svg width="25" height="16" viewBox="0 0 25 16" fill="none" xmlns="http://www.w3.org/2000/svg">
<path d="M5.89893 3.93364H10.6142V4.30845H6.33115V7.1291H10.3588V7.50386H6.33115V10.6007H10.6633V10.9754H5.89893V3.93364ZM11.0366 3.93364H11.5376L13.7577 7.03047L16.0269 3.93359L19.1133 0L14.0425 7.35596L16.6556 10.9754H16.1349L13.7577 7.6814L11.3706 10.9754H10.8598L13.4924 7.35591L11.0366 3.93364H11.0366ZM16.8422 4.30845V3.93359H22.2156V4.3084H19.7401V10.9754H19.3079V4.30845H16.8422V4.30845ZM0 3.93359H0.540283L7.99048 15.0822L4.91172 10.9754L0.451855 4.46621L0.432227 10.9755H0V3.93359ZM22.1721 10.4875C22.0837 10.4875 22.0175 10.4191 22.0175 10.3307C22.0175 10.2423 22.0837 10.1738 22.1721 10.1738C22.2614 10.1738 22.3266 10.2422 22.3266 10.3307C22.3266 10.4191 22.2614 10.4875 22.1721 10.4875ZM22.5968 10.0749H22.8281C22.8312 10.2001 22.9227 10.2844 23.0572 10.2844C23.2076 10.2844 23.2927 10.1938 23.2927 10.0244V8.95064H23.5282V10.0254C23.5282 10.3307 23.3516 10.5065 23.0593 10.5065C22.7849 10.5065 22.5968 10.3359 22.5968 10.0749V10.0749ZM23.8362 10.0612H24.0696C24.0896 10.2054 24.2305 10.297 24.4334 10.297C24.6226 10.297 24.7614 10.1991 24.7614 10.0644C24.7614 9.94858 24.673 9.8791 24.4723 9.83174L24.2767 9.78438C24.0023 9.72012 23.8772 9.5875 23.8772 9.36436C23.8772 9.09385 24.098 8.91382 24.4291 8.91382C24.7372 8.91382 24.9622 9.0938 24.9758 9.34961H24.7466C24.7246 9.20962 24.6026 9.12222 24.426 9.12222C24.2399 9.12222 24.1159 9.21172 24.1159 9.34853C24.1159 9.45693 24.1958 9.51909 24.3934 9.56538L24.5605 9.60645C24.8717 9.6791 25 9.80542 25 10.0338C25 10.3244 24.775 10.5065 24.4155 10.5065C24.0791 10.5065 23.853 10.3328 23.8362 10.0612V10.0612Z" fill="black"/>
</svg>
