<svg width="27" height="30" viewBox="0 0 27 30" fill="none" xmlns="http://www.w3.org/2000/svg">
<path d="M4.54129 3.53355C4.54129 3.53355 4.44279 3.68992 4.53636 3.9214C4.593 4.06423 4.76538 4.23661 4.955 4.41885C4.955 4.41885 6.94353 6.35936 7.18733 6.64009C8.28933 7.91201 8.7683 9.16423 8.81263 10.8917C8.83972 11.9999 8.62671 12.9751 8.1071 14.1091C7.17625 16.1395 5.21357 18.3792 2.1846 20.8689L2.62787 20.7211C2.91476 20.5081 3.30261 20.2791 4.21869 19.7779C6.32789 18.6255 8.69566 17.5641 11.6052 16.4707C15.7903 14.8983 22.6745 13.0526 26.5924 12.453L27 12.3902L26.9384 12.2917C26.5789 11.7352 26.3351 11.3916 26.0396 11.0272C25.1814 9.96457 24.1409 9.09774 22.8666 8.38483C21.1157 7.40349 18.8439 6.64132 15.9713 6.07C15.0747 5.90139 14.1753 5.74746 13.2736 5.60827C11.6606 5.3609 10.05 5.09821 8.44201 4.82025C7.91872 4.7279 7.13685 4.59738 6.61847 4.48534C6.21872 4.4004 5.82375 4.29436 5.43521 4.16766C5.10522 4.03838 4.64102 3.91279 4.54129 3.53355V3.53355ZM5.69378 4.65279C5.69747 4.65033 5.77135 4.67372 5.86246 4.7045C6.02992 4.76114 6.25155 4.82763 6.51012 4.90028C6.68989 4.94953 6.88813 5.00371 7.09991 5.05665C7.36833 5.12561 7.59119 5.18471 7.59365 5.1884C7.62321 5.22165 8.07509 6.66349 8.229 7.21633C8.2881 7.42812 8.33243 7.60419 8.32873 7.60788C8.28582 7.55449 8.24868 7.49671 8.21792 7.4355C7.69585 6.51696 6.86719 5.58241 5.91048 4.8301C5.83611 4.77366 5.76382 4.71452 5.69378 4.65279V4.65279ZM7.89778 5.26105C7.97878 5.26878 8.05905 5.28278 8.13788 5.30291C8.90005 5.47037 10.2619 5.73386 11.1361 5.88162C11.2826 5.90624 11.402 5.93087 11.402 5.93949C11.3664 5.9715 11.3256 5.99731 11.2814 6.01583C11.1348 6.0897 10.5401 6.44555 10.3419 6.57853C9.88907 6.87592 9.46454 7.21431 9.07366 7.58941C8.99483 7.67026 8.91395 7.74909 8.8311 7.82582C8.80996 7.77098 8.79308 7.71458 8.78062 7.65714C8.57153 6.90718 8.30393 6.17477 7.98028 5.46667C7.94778 5.40045 7.9186 5.33264 7.89286 5.26351C7.89286 5.26228 7.89286 5.26105 7.89778 5.26105V5.26105ZM11.7726 5.99736C11.7973 6.00598 11.8465 6.15743 11.9315 6.4948C12.1277 7.29033 12.1914 8.1128 12.1199 8.92906L12.1051 8.97585L11.8748 8.90197C11.237 8.70217 10.5959 8.51334 9.95157 8.33558C9.71876 8.27599 9.4887 8.20615 9.26205 8.12626C9.26205 8.09917 9.8149 7.54632 10.0525 7.33577C10.5069 6.93437 11.7296 5.98381 11.7726 5.99736V5.99736ZM12.0805 6.04168C12.094 6.02937 13.9323 6.34704 14.7671 6.50711C15.3902 6.62655 16.2902 6.81493 16.3444 6.83833C16.3715 6.84818 16.2779 6.89989 15.9787 7.03533C14.7967 7.56725 13.92 8.04499 13.0483 8.62739C12.8192 8.78007 12.6284 8.90566 12.6247 8.90566C12.6198 8.90566 12.6173 8.77761 12.6173 8.62247C12.6173 7.77288 12.4462 6.91467 12.1359 6.18944C12.1129 6.14202 12.0943 6.09255 12.0805 6.04168ZM16.8332 6.98239C16.8468 6.99593 16.7865 7.35916 16.7347 7.57341C16.5722 8.2383 16.1413 9.22826 15.6093 10.1579C15.5535 10.2627 15.491 10.3639 15.4222 10.4608C15.3286 10.4211 15.2384 10.3737 15.1525 10.3192C14.6329 10.0151 14.0444 9.72816 13.398 9.46097C13.2823 9.4155 13.1681 9.36622 13.0557 9.31322C13.0261 9.28613 14.463 8.33434 15.2252 7.87754C15.8347 7.51184 16.816 6.96515 16.8332 6.98239V6.98239ZM17.1731 7.03533C17.2137 7.03533 18.0288 7.25697 18.4499 7.38379C19.5002 7.69777 20.7118 8.1398 21.4974 8.49687L21.8237 8.64463L21.5934 8.69757C19.6714 9.14084 18.0227 9.64936 16.4368 10.2933C16.305 10.3475 16.1905 10.3918 16.1819 10.3918C16.2042 10.3127 16.2352 10.2364 16.2742 10.164C16.752 9.15069 17.0598 8.08685 17.1398 7.18432C17.1472 7.10182 17.162 7.03533 17.1731 7.03533V7.03533ZM9.0712 8.89704C9.08351 8.88473 9.70408 9.03002 10.0427 9.12483C10.5512 9.26766 11.6335 9.62966 11.6335 9.65798C11.6335 9.66291 11.5141 9.76756 11.3688 9.88946C10.7401 10.4181 10.131 10.9697 9.54279 11.5431C9.42108 11.665 9.29457 11.7821 9.16355 11.894C9.15493 11.894 9.15124 11.8657 9.15616 11.8324C9.25836 11.0801 9.23619 10.1148 9.0946 9.13222C9.08062 9.05495 9.07239 8.97676 9.06997 8.89827L9.0712 8.89704ZM22.1352 8.90936C22.1438 8.91921 21.8471 9.3834 21.6624 9.64813C21.3915 10.0348 21.0012 10.542 20.1097 11.6637L18.9351 13.1438C18.8278 13.2829 18.7173 13.4196 18.6038 13.5538C18.6001 13.5538 18.5423 13.4725 18.477 13.374C17.9737 12.623 17.364 11.949 16.667 11.3732C16.5578 11.2817 16.447 11.1922 16.3346 11.1047C16.3013 11.0824 16.2708 11.0564 16.2435 11.0272C16.2435 11.0149 17.0032 10.6898 17.5831 10.4534C18.7066 10.0018 19.8477 9.59515 21.0036 9.23442C21.5479 9.06819 22.1266 8.90197 22.1352 8.90936V8.90936ZM22.4775 8.99924C22.5672 9.02958 22.6528 9.07094 22.7324 9.12237C23.818 9.74435 24.8222 10.4987 25.7219 11.3682C25.9608 11.6022 26.5432 12.2092 26.5346 12.2141L26.0876 12.2498C24.2037 12.3914 21.7953 12.7916 19.4756 13.3494C19.318 13.3863 19.1825 13.4183 19.1727 13.4183C19.1641 13.4183 19.3365 13.246 19.5556 13.0342C20.9187 11.7253 21.5392 10.8991 22.2706 9.42157C22.379 9.2024 22.4713 9.01155 22.475 9.00047H22.4775V8.99924ZM12.5188 10.0212C12.5816 10.0335 13.1628 10.3044 13.6011 10.5236C14.0013 10.7243 14.6083 11.0481 14.6391 11.0764C14.6428 11.0801 14.4298 11.1909 14.1638 11.3239C13.3748 11.7157 12.6033 12.1417 11.8515 12.6008C11.636 12.7325 11.4574 12.8396 11.4513 12.8396C11.4328 12.8396 11.439 12.8236 11.5596 12.6045C11.9754 11.8289 12.2813 10.9993 12.4683 10.1394C12.4856 10.0631 12.5053 10.0163 12.5188 10.02V10.0212ZM11.9339 10.1246C11.9463 10.137 11.796 10.691 11.7 10.9865C11.4398 11.764 11.0951 12.5105 10.6719 13.2127L10.5611 13.3937L10.3111 13.1511C10.0679 12.9033 9.78697 12.6955 9.47876 12.5355C9.40248 12.501 9.32987 12.459 9.26205 12.4099C9.26205 12.373 10.0255 11.6798 10.614 11.1811C11.0363 10.824 11.9241 10.1136 11.9339 10.1246V10.1246ZM15.4899 11.5874L15.7078 11.729C16.209 12.0541 16.8012 12.4912 17.2531 12.8667C17.5068 13.0785 17.998 13.5193 18.099 13.6252L18.1532 13.6831L17.7912 13.784C15.9402 14.2889 14.1121 14.8739 12.312 15.5374C12.182 15.5872 12.0506 15.6332 11.9179 15.6753C11.8921 15.6753 11.8662 15.6987 12.328 15.2739C13.51 14.1867 14.5529 12.9886 15.3323 11.8238L15.4899 11.5874ZM14.5554 11.8214C14.5664 11.8324 13.9496 12.6956 13.5839 13.1832C13.1455 13.7656 12.3649 14.7407 11.8281 15.3749C11.691 15.542 11.5489 15.705 11.402 15.8637C11.3897 15.8674 11.3836 15.8021 11.3823 15.6999C11.3823 15.1581 11.2444 14.5794 11.0031 14.0894C10.9009 13.8825 10.8837 13.8333 10.9046 13.8136C10.9883 13.7372 12.2923 12.9935 13.1135 12.554C13.6787 12.2511 14.5455 11.8103 14.5554 11.8214ZM8.90375 13.2066C9.26156 13.378 9.59728 13.5921 9.90355 13.8444C9.9134 13.8505 9.79643 13.9466 9.64498 14.0561C9.22019 14.3627 8.57376 14.8491 8.20068 15.1471C7.80667 15.461 7.79312 15.4709 7.83745 15.4019C8.13296 14.9501 8.28071 14.6952 8.43586 14.3677C8.57499 14.0771 8.71167 13.7323 8.81017 13.4319C8.83049 13.3525 8.86244 13.2766 8.90498 13.2066H8.90375ZM10.4096 14.3886C10.4305 14.3849 10.4589 14.4231 10.5808 14.6041C10.8356 14.9858 11.0314 15.4931 11.0819 15.9068L11.0917 15.9967L10.4798 16.2331C9.53979 16.5944 8.60944 16.9803 7.6897 17.3905C7.49885 17.4791 7.1627 17.6392 6.9423 17.75C6.7219 17.8608 6.54213 17.947 6.54213 17.9421C6.54213 17.9372 6.68004 17.8325 6.84996 17.7106C8.18837 16.7379 9.34332 15.6741 10.2138 14.609C10.3062 14.4957 10.3911 14.3972 10.4022 14.3898C10.4045 14.3885 10.407 14.3877 10.4096 14.3874V14.3886ZM9.71517 14.561C9.73363 14.5782 9.22142 15.1569 8.87666 15.5091C8.04378 16.3649 7.11118 17.1177 6.09887 17.7512C5.96589 17.8362 5.84522 17.9113 5.82799 17.9212C5.79967 17.9384 5.83784 17.8941 6.30326 17.3868C6.59631 17.0679 6.82041 16.8031 7.07651 16.4719C7.19457 16.3011 7.34624 16.1561 7.52224 16.0459C8.18344 15.5682 9.69793 14.5425 9.71517 14.5597V14.561ZM10.9452 0.44917C10.8467 0.436857 9.25713 1.00941 8.23639 1.42312C6.85365 1.98582 5.77874 2.52389 5.1163 2.98932C4.87004 3.1617 4.55976 3.47322 4.51543 3.59265C4.49796 3.64122 4.48921 3.69249 4.48958 3.7441L5.09044 4.31049L6.51628 4.76607L9.9134 5.37433L13.7957 6.04168L13.8351 5.70924L13.8006 5.70308L13.2896 5.62182L13.1849 5.43958C12.6572 4.5086 12.1736 3.55329 11.7357 2.57684C11.4802 1.99 11.2622 1.3875 11.0831 0.772999C10.9994 0.473796 10.9908 0.455326 10.9452 0.44917ZM10.8701 0.67819H10.8763C10.88 0.681884 10.8972 0.807475 10.9157 0.95523C10.992 1.58072 11.1324 2.18652 11.3515 2.8391C11.5165 3.33162 11.519 3.3033 11.322 3.24789C10.8664 3.12107 8.82002 2.77015 7.34001 2.56452C7.19306 2.54578 7.0465 2.52402 6.90044 2.49927C6.88197 2.4808 7.96797 1.91194 8.4494 1.68662C9.06628 1.40096 10.7482 0.701584 10.8701 0.67819V0.67819ZM6.55814 2.68273L6.73175 2.74183C7.68231 3.06443 10.0636 3.52 11.3799 3.62836C11.5276 3.64067 11.6532 3.65421 11.6569 3.65791C11.6606 3.6616 11.5338 3.72932 11.3762 3.80813C10.7421 4.1258 10.0427 4.51365 9.55879 4.81655C9.41719 4.9052 9.28791 4.97662 9.26944 4.97539C9.19948 4.96554 9.12969 4.95446 9.06012 4.94214L8.88281 4.91382L8.43339 4.47672C7.64414 3.71332 7.02849 3.1223 6.78962 2.90067L6.55814 2.68273ZM6.38207 2.82309L7.01126 3.60866C7.35848 4.03961 7.7057 4.46933 7.78204 4.56167C7.85961 4.65402 7.91872 4.73159 7.91502 4.73406C7.89778 4.7476 7.00387 4.57399 6.52982 4.4644C6.1962 4.39349 5.86624 4.30638 5.5411 4.20337L5.29484 4.12457L5.29607 4.06423C5.29976 3.76257 5.68023 3.31684 6.32543 2.8625L6.38207 2.82309ZM11.7406 3.89308C11.7591 3.89432 11.78 3.93249 11.8354 4.05438C11.9881 4.38929 12.4634 5.29552 12.5779 5.47037C12.6149 5.52824 12.6764 5.53193 12.0448 5.42973C10.5303 5.18594 10.039 5.10344 10.039 5.09359C10.0698 5.06683 10.1042 5.04445 10.1412 5.0271C10.6243 4.75601 11.0807 4.4398 11.5042 4.0827L11.7197 3.9017C11.7271 3.89555 11.7345 3.89185 11.7406 3.89308V3.89308ZM17.0463 14.2458L11.1262 16.1764L5.97944 18.4494L4.53883 18.8311C3.77547 19.5528 2.98353 20.2437 2.1649 20.9021C1.7396 21.2539 1.34687 21.6434 0.991483 22.0657C0.582696 22.5754 0.26256 23.1172 0.124656 23.5346C-0.121602 24.2857 -0.00216664 25.0466 0.475573 25.7485C1.08506 26.6448 2.29788 27.556 3.70771 28.1766C4.42801 28.4918 5.64083 28.9006 6.55198 29.1296C8.07016 29.5137 11.0019 29.9299 12.6173 29.9915C12.9448 30.0038 13.3807 30.0038 13.4016 29.989C13.4361 29.9656 13.6885 29.4903 13.9804 28.8932C14.9728 26.8665 15.6906 24.9654 16.0772 23.3425C16.3112 22.3587 16.4934 21.0486 16.6116 19.4947C16.648 18.7015 16.6545 17.9072 16.6313 17.1134C16.6006 16.4092 16.5254 15.7076 16.406 15.0129C16.3904 14.9526 16.3854 14.8901 16.3912 14.8282C16.4085 14.8158 16.4639 14.7974 17.1916 14.5856L17.0463 14.2458ZM15.6918 15.0399C15.7472 15.0399 15.8888 16.4116 15.927 17.2809C15.9344 17.4668 15.9332 17.585 15.9221 17.585C15.8876 17.585 15.1649 17.1602 14.6514 16.8389C14.1669 16.5336 13.6898 16.2167 13.2206 15.8883C13.1775 15.8538 13.1825 15.8526 13.5482 15.727C14.17 15.5128 15.6463 15.0399 15.6931 15.0399H15.6918ZM12.6776 16.0287C12.7146 16.0287 12.8192 16.0865 13.0655 16.2404C13.989 16.8192 15.24 17.5148 15.7743 17.7488C15.9418 17.8227 15.9603 17.7931 15.5773 18.0529C14.7622 18.607 13.7476 19.1512 12.5028 19.7053C12.3684 19.7668 12.2325 19.8251 12.0952 19.8801C12.1043 19.7964 12.1221 19.7139 12.1482 19.6339C12.4499 18.5196 12.6198 17.3929 12.6247 16.4892C12.6272 16.0434 12.6272 16.041 12.6703 16.0299H12.6776V16.0287ZM12.0571 16.2663C12.0829 16.2934 12.0645 17.2932 12.0325 17.5665C11.9387 18.3361 11.7662 19.0941 11.5178 19.8284C11.5005 19.8494 10.8886 19.2522 10.6854 19.0158C10.3637 18.651 10.0872 18.2487 9.86169 17.8177C9.76072 17.6183 9.59819 17.2218 9.61297 17.2107C9.68192 17.1615 12.0398 16.2503 12.0571 16.2663ZM9.13277 17.4188C9.13769 17.4188 9.14262 17.42 9.14508 17.4237C9.17238 17.4755 9.19544 17.5295 9.21403 17.585C9.40397 18.0578 9.65303 18.5046 9.95527 18.9148C10.3199 19.3976 10.7402 19.8357 11.2075 20.22C11.2358 20.2446 11.2444 20.2397 10.5155 20.5155C9.58235 20.8673 8.64052 21.1958 7.69093 21.5005C7.2883 21.631 6.94723 21.7406 6.93368 21.7468C6.89305 21.7603 6.90536 21.7357 7.02357 21.5522C7.54933 20.7322 8.34474 19.1266 8.79047 17.9913C8.86681 17.7943 8.94068 17.5973 8.95423 17.553C8.9727 17.489 8.9924 17.4668 9.05273 17.4397C9.07747 17.4267 9.10484 17.4196 9.13277 17.4188V17.4188ZM8.23639 17.7882C8.2487 17.7993 8.02214 18.2782 7.79805 18.7129C7.32302 19.6316 6.80826 20.5292 6.25524 21.4032L6.03115 21.7579C6.00899 21.7911 5.99914 21.78 5.93018 21.6421C5.76921 21.3136 5.65325 20.9649 5.58542 20.6054C5.52211 20.1624 5.53042 19.7122 5.61005 19.2719C5.66792 18.9924 5.66546 18.9985 5.7972 18.932C6.36606 18.6402 8.21792 17.7722 8.23639 17.7882V17.7882ZM15.9541 18.1022V18.2918C15.9414 19.5259 15.8365 20.7573 15.6401 21.9758C14.8282 21.7415 14.0445 21.4186 13.3031 21.0129C12.8673 20.7741 12.2381 20.3887 12.2565 20.3702C12.2602 20.3653 12.4462 20.268 12.6678 20.1523C13.5469 19.6967 14.3854 19.2042 15.1156 18.7166C15.3889 18.5343 15.799 18.2376 15.8901 18.1576L15.9541 18.1022ZM4.85773 19.4233C4.8762 19.4233 4.87127 19.4578 4.84296 19.6216C4.81855 19.7807 4.8017 19.941 4.79247 20.1018C4.75553 20.7568 4.86266 21.2395 5.18649 21.8995C5.2776 22.0841 5.34902 22.2368 5.34532 22.2393C5.31208 22.2676 2.35329 23.1332 1.42243 23.3881L0.886824 23.5358C0.853579 23.5457 0.851116 23.5383 0.862198 23.462C0.964395 22.8057 1.46553 21.945 2.1649 21.221C2.63033 20.7408 3.00218 20.4552 3.63629 20.0944C4.03929 19.8632 4.44651 19.6395 4.85773 19.4233V19.4233ZM11.8379 20.6731C11.8404 20.6706 11.95 20.7285 12.0805 20.8048C13.0372 21.3577 14.3707 21.8761 15.5071 22.1359L15.6106 22.1605L15.469 22.2381C14.8755 22.568 12.919 23.3819 10.9206 24.1305C10.7097 24.2093 10.4992 24.289 10.2889 24.3694C10.257 24.3851 10.223 24.3963 10.188 24.4027C10.188 24.3977 10.2705 24.2401 10.3714 24.0505C10.9329 23.0015 11.4919 21.7271 11.78 20.843C11.8084 20.7531 11.8342 20.6768 11.8379 20.6731V20.6731ZM11.1262 20.907C11.1049 20.978 11.079 21.0475 11.0487 21.1151C10.5944 22.1879 10.0759 23.2323 9.496 24.2426C9.39753 24.4232 9.29406 24.6009 9.18571 24.7757C9.17956 24.7757 9.04534 24.6945 8.88528 24.5972C7.93718 24.016 7.09745 23.3019 6.54583 22.6062L6.46703 22.5077L6.87581 22.3957C8.2158 22.0372 9.52842 21.5834 10.8036 21.0376C10.9785 20.9637 11.1238 20.9033 11.1262 20.907V20.907ZM15.5465 22.4498C15.5478 22.4498 15.549 22.4511 15.549 22.4535C15.549 22.552 15.3237 23.473 15.1353 24.1404C14.9777 24.6982 14.8447 25.1353 14.5997 25.9098C14.5372 26.1187 14.4682 26.3257 14.3928 26.5303C13.1289 26.3143 11.891 25.9672 10.699 25.4948C10.4317 25.3902 10.1692 25.274 9.91217 25.1464C9.90478 25.1377 10.1744 25.0109 10.5106 24.8632C12.5484 23.9754 14.6588 22.9633 15.3803 22.5286C15.4307 22.4929 15.487 22.4663 15.5465 22.4498V22.4498ZM5.34286 22.7983C5.35394 22.8094 4.78385 23.6245 3.98844 24.7388L3.26567 25.7522C3.14624 25.9233 2.96401 26.193 2.86058 26.353L2.67219 26.6436L2.47272 26.4749C2.17409 26.2129 1.89546 25.9289 1.63914 25.6253C1.25498 25.1464 0.995177 24.6428 0.891749 24.1798C0.84496 23.9656 0.842497 23.8572 0.888055 23.8437C1.68077 23.6524 2.47455 23.4657 3.26937 23.2834L4.87004 22.9079C5.12738 22.8463 5.3404 22.7971 5.34286 22.7983V22.7983ZM5.91541 23.0175L6.05947 23.1788C6.66114 23.8619 7.37075 24.4417 8.16005 24.8952C8.24611 24.9379 8.32672 24.9908 8.40015 25.0528C6.62813 25.6952 4.85091 26.3232 3.06867 26.9367C3.03814 26.9185 3.00855 26.8987 2.98002 26.8776L2.89752 26.8185L3.0268 26.6313C3.44544 26.0243 3.97243 25.3569 5.12615 23.9692L5.91541 23.0175ZM9.48615 25.5699C9.48984 25.5662 9.68931 25.6364 9.93187 25.7275C10.5143 25.9455 10.9711 26.0871 11.5904 26.2422C12.3501 26.4331 13.4497 26.6239 14.0998 26.6781C14.1983 26.6855 14.25 26.6978 14.2352 26.7076C14.2044 26.7273 13.5457 26.9465 13.0618 27.0992C11.1643 27.6764 9.26149 28.2358 7.35355 28.7774C7.31046 28.7861 7.16024 28.7467 7.16024 28.7282C7.16024 28.7171 7.26736 28.5817 7.39788 28.4253C8.04894 27.6457 8.65569 26.8301 9.21526 25.9824C9.30507 25.8446 9.39537 25.7071 9.48615 25.5699V25.5699ZM8.69566 25.5921C8.70181 25.5982 8.38414 26.1068 7.82637 26.9859C7.58996 27.3565 7.32277 27.7801 7.23166 27.9241C7.13931 28.0694 7.0051 28.2911 6.93368 28.4167L6.80194 28.6445L6.73545 28.6272C6.57538 28.5841 5.44382 28.184 5.14585 28.0657C4.79018 27.9252 4.44244 27.7653 4.10418 27.5868C3.74834 27.3947 3.29769 27.109 3.33216 27.098L4.69274 26.7261C6.65295 26.1917 7.73772 25.8851 8.44817 25.6623C8.58238 25.6216 8.6932 25.5896 8.69443 25.5921H8.69566ZM14.2648 26.8985H14.2722C14.2906 26.9453 13.5642 28.9547 13.2994 29.5925C13.2391 29.7354 13.2182 29.7711 13.1862 29.7686C12.597 29.6942 12.0088 29.6121 11.4217 29.5224C10.3062 29.3524 8.43832 29.0262 7.96674 28.919L7.85715 28.8944L8.52574 28.7442C9.95896 28.4216 10.6473 28.248 11.3454 28.0337C12.2453 27.7568 13.1249 27.4178 13.9779 27.0192C14.0712 26.9737 14.167 26.9334 14.2648 26.8985V26.8985Z" fill="#3E3636"/>
</svg>
