<svg width="21" height="21" viewBox="0 0 21 21" fill="none" xmlns="http://www.w3.org/2000/svg">
<path d="M20.9758 2.94249C20.2292 3.34944 19.4271 3.62441 18.584 3.74869C19.454 3.10834 20.1048 2.1005 20.4151 0.913227C19.5978 1.51045 18.7032 1.93082 17.7703 2.15608C17.143 1.33213 16.3121 0.786001 15.4065 0.602485C14.501 0.41897 13.5716 0.608334 12.7625 1.14118C11.9535 1.67402 11.3101 2.52054 10.9322 3.54929C10.5543 4.57805 10.4631 5.73148 10.6728 6.83053C9.01656 6.72824 7.39636 6.19871 5.91729 5.27631C4.43823 4.35391 3.13336 3.05925 2.08738 1.47636C1.72973 2.23527 1.52408 3.11517 1.52408 4.05226C1.52368 4.89585 1.69256 5.72653 2.01574 6.47058C2.33892 7.21463 2.8064 7.84905 3.3767 8.31755C2.7153 8.29167 2.06849 8.07183 1.4901 7.67633V7.74232C1.49004 8.9255 1.82275 10.0723 2.43178 10.988C3.04081 11.9038 3.88866 12.5322 4.83145 12.7665C4.21788 12.9708 3.57461 13.0009 2.95021 12.8545C3.21621 13.8726 3.73435 14.7628 4.4321 15.4006C5.12985 16.0385 5.97227 16.3919 6.84144 16.4115C5.36598 17.8363 3.54381 18.6091 1.66803 18.6057C1.33576 18.6059 1.00377 18.582 0.673767 18.5342C2.57778 20.0402 4.7942 20.8394 7.05781 20.8363C14.7205 20.8363 18.9094 13.0294 18.9094 6.2586C18.9094 6.03862 18.905 5.81645 18.8969 5.59647C19.7117 4.87163 20.4151 3.97405 20.974 2.94579L20.9758 2.94249V2.94249Z" fill="#F5EDED"/>
</svg>
