<svg width="22" height="21" viewBox="0 0 22 21" fill="none" xmlns="http://www.w3.org/2000/svg">
<path fill-rule="evenodd" clip-rule="evenodd" d="M0.893006 2.23044C0.893006 1.7806 1.07171 1.34918 1.38979 1.03109C1.70788 0.713004 2.1393 0.534304 2.58914 0.534304H19.497C19.7199 0.53394 19.9407 0.57755 20.1468 0.662637C20.3529 0.747724 20.5401 0.872618 20.6978 1.03017C20.8555 1.18772 20.9806 1.37483 21.066 1.58079C21.1513 1.78675 21.1951 2.00751 21.195 2.23044V19.1383C21.1952 19.3613 21.1515 19.5821 21.0663 19.7882C20.9811 19.9942 20.8562 20.1815 20.6985 20.3392C20.5409 20.4969 20.3537 20.622 20.1477 20.7073C19.9417 20.7926 19.7209 20.8364 19.4979 20.8363H2.58914C2.36633 20.8363 2.14569 20.7924 1.93985 20.7071C1.734 20.6218 1.54698 20.4968 1.38947 20.3392C1.23195 20.1816 1.10704 19.9945 1.02185 19.7886C0.936667 19.5827 0.892884 19.362 0.893006 19.1392V2.23044ZM8.9289 8.2749H11.678V9.65543C12.0748 8.86181 13.0899 8.14755 14.6153 8.14755C17.5397 8.14755 18.2327 9.72833 18.2327 12.6288V18.0014H15.2733V13.2895C15.2733 11.6376 14.8765 10.7056 13.8687 10.7056C12.4707 10.7056 11.8893 11.7105 11.8893 13.2895V18.0014H8.9289V8.2749ZM3.8534 17.875H6.8138V8.14755H3.8534V17.874V17.875ZM7.23738 4.9749C7.24296 5.22837 7.19785 5.48041 7.10471 5.71621C7.01157 5.95202 6.87226 6.16685 6.69497 6.34808C6.51768 6.52932 6.30597 6.67332 6.07228 6.77163C5.83858 6.86994 5.5876 6.92059 5.33406 6.92059C5.08053 6.92059 4.82955 6.86994 4.59585 6.77163C4.36216 6.67332 4.15045 6.52932 3.97316 6.34808C3.79587 6.16685 3.65656 5.95202 3.56342 5.71621C3.47028 5.48041 3.42517 5.22837 3.43075 4.9749C3.44171 4.47737 3.64705 4.0039 4.00279 3.65591C4.35854 3.30791 4.83641 3.11304 5.33406 3.11304C5.83172 3.11304 6.30959 3.30791 6.66533 3.65591C7.02108 4.0039 7.22642 4.47737 7.23738 4.9749V4.9749Z" fill="#F5EDED"/>
</svg>
