<svg width="21" height="21" viewBox="0 0 21 21" fill="none" xmlns="http://www.w3.org/2000/svg">
<path d="M17.6674 3.48576C16.7324 2.54638 15.619 1.80164 14.392 1.29493C13.165 0.788222 11.849 0.529678 10.5206 0.534364C4.95443 0.534364 0.418094 5.049 0.412996 10.5914C0.412996 12.3666 0.879503 14.0935 1.76026 15.6225L0.331421 20.8363L5.68988 19.438C7.17226 20.2411 8.83298 20.662 10.5206 20.6625H10.5257C16.0932 20.6625 20.6283 16.1478 20.6334 10.6003C20.6347 9.2782 20.3731 7.96891 19.8639 6.74787C19.3546 5.52682 18.6077 4.41816 17.6661 3.48576H17.6674ZM10.5206 18.9596C9.01533 18.9601 7.53768 18.5569 6.24306 17.7923L5.93715 17.6096L2.75828 18.4394L3.60717 15.3522L3.40833 15.0337C2.56684 13.7018 2.1218 12.1598 2.1248 10.5864C2.1248 5.98543 5.89382 2.23211 10.5257 2.23211C11.6292 2.23014 12.7222 2.44563 13.7416 2.86616C14.761 3.28668 15.6868 3.90393 16.4654 4.6823C17.2468 5.45764 17.8662 6.37932 18.288 7.39417C18.7098 8.40902 18.9256 9.49696 18.9229 10.5952C18.9178 15.2127 15.1488 18.9596 10.5206 18.9596V18.9596ZM15.1284 12.699C14.8773 12.5734 13.6371 11.9656 13.4038 11.8793C13.1718 11.7969 13.0023 11.7537 12.8366 12.005C12.6671 12.2549 12.1827 12.8246 12.0374 12.9883C11.8921 13.1571 11.7417 13.1761 11.4894 13.0518C11.2383 12.9249 10.4238 12.661 9.46017 11.8019C8.70816 11.1358 8.20468 10.311 8.05428 10.061C7.90897 9.80981 8.04026 9.67531 8.16645 9.54969C8.27734 9.43803 8.41754 9.25531 8.54373 9.11066C8.67119 8.96601 8.71325 8.85942 8.7961 8.69193C8.87895 8.5219 8.83944 8.37725 8.77698 8.25163C8.71325 8.12601 8.20978 6.88633 7.99692 6.38639C7.79299 5.8928 7.58522 5.96132 7.42972 5.95498C7.28442 5.9461 7.11489 5.9461 6.94537 5.9461C6.81735 5.94926 6.69137 5.97874 6.57534 6.03267C6.45931 6.08661 6.35573 6.16383 6.2711 6.25951C6.03912 6.51074 5.39035 7.11853 5.39035 8.35822C5.39035 9.5979 6.29532 10.7894 6.42278 10.9581C6.54769 11.1269 8.19959 13.6634 10.7348 14.7546C11.3339 15.0147 11.8055 15.1682 12.1738 15.285C12.7793 15.4778 13.3261 15.4487 13.762 15.3865C14.2463 15.3129 15.2545 14.7774 15.4674 14.1899C15.6764 13.6012 15.6764 13.0987 15.6127 12.9934C15.5503 12.8868 15.3807 12.8246 15.1284 12.699V12.699Z" fill="#F5EDED"/>
</svg>
